<svg width="21" height="22" viewBox="0 0 21 22" xmlns="http://www.w3.org/2000/svg">
<g id="root" fill="none">
  <path d="M5 1H20V21H5" stroke="black" stroke-width="0.6"/>
  <path d="M13.5455 11.2121C13.6626 11.095 13.6626 10.905 13.5455 10.7879L11.6363 8.87867C11.5191 8.76152 11.3292 8.76152 11.212 8.87867C11.0949 8.99583 11.0949 9.18578 11.212 9.30294L12.9091 11L11.212 12.6971C11.0949 12.8142 11.0949 13.0042 11.212 13.1213C11.3292 13.2385 11.5191 13.2385 11.6363 13.1213L13.5455 11.2121ZM1.54083e-07 11.3L13.3333 11.3L13.3333 10.7L-1.54083e-07 10.7L1.54083e-07 11.3Z" fill='black' stroke="none"/>
</svg>
