<svg width="33" height="31" id="root" viewBox="0 0 33 31" fill="none" xmlns="http://www.w3.org/2000/svg">
<line x1="0.5" y1="6" x2="0.499999" y2="23" stroke="black"/>
<line x1="6.5" y1="19" x2="6.5" y2="30" stroke="black"/>
<line x1="26.5" y1="19" x2="26.5" y2="30" stroke="black"/>
<line x1="26.5" y1="1.86767e-08" x2="26.5" y2="6" stroke="black"/>
<line x1="6.5" y1="1.86767e-08" x2="6.5" y2="6" stroke="black"/>
<line x1="32.5" y1="6" x2="32.5" y2="23" stroke="black"/>
<line y1="22.5" x2="6" y2="22.5" stroke="black"/>
<line x1="27" y1="22.5" x2="32" y2="22.5" stroke="black"/>
<line x1="6" y1="18.5" x2="27" y2="18.5" stroke="black"/>
<line x1="10" y1="22.5" x2="22" y2="22.5" stroke="black"/>
<line x1="10" y1="25.5" x2="22" y2="25.5" stroke="black"/>
<line y1="6.5" x2="33" y2="6.5" stroke="black"/>
<line x1="6" y1="30.5" x2="27" y2="30.5" stroke="black"/>
<line x1="6" y1="0.5" x2="27" y2="0.5" stroke="black"/>
<circle cx="28" cy="10" r="1" fill="black"/>
</svg>
