<?xml version="1.0" encoding="UTF-8" standalone="no"?>
<!DOCTYPE svg PUBLIC "-//W3C//DTD SVG 1.1//EN" "http://www.w3.org/Graphics/SVG/1.1/DTD/svg11.dtd">
<svg width="26" height="30" viewBox="0 0 26 30" version="1.1" xmlns="http://www.w3.org/2000/svg" id="root" xml:space="preserve" fill="black" style="fill-rule:evenodd;clip-rule:evenodd;stroke-linejoin:round;stroke-miterlimit:2;">
    <g transform="matrix(0.115385,0,0,0.115385,-0.384615,0.689328)">
        <path d="M207.778,131.578L219.936,64.715C219.978,64.479 220,64.24 220,64C220,61.806 218.195,60 216,60C216,60 216,60 216,60L51.338,60L45.857,29.854C44.826,24.169 39.828,19.998 34.051,20L16,20C13.806,20 12,21.806 12,24C12,26.194 13.806,28 16,28L34.051,28C35.976,27.999 37.643,29.389 37.986,31.284L65.866,184.62C59.668,189.134 55.994,196.355 55.994,204.023C55.994,217.191 66.829,228.026 79.997,228.026C93.165,228.026 104,217.191 104,204.023C104,198.111 101.816,192.402 97.869,188L166.131,188C162.201,192.396 160.027,198.09 160.027,203.987C160.027,217.145 170.855,227.973 184.013,227.973C197.172,227.973 208,217.145 208,203.987C208,190.828 197.172,180 184.013,180C184.009,180 184.004,180 184,180L73.156,180L67.338,148L188.102,148C197.73,148.004 206.06,141.051 207.778,131.578ZM96,204C96,212.777 88.777,220 80,220C71.223,220 64,212.777 64,204C64,195.223 71.223,188 80,188C88.774,188.01 95.99,195.226 96,204ZM200,204C200,212.777 192.777,220 184,220C175.223,220 168,212.777 168,204C168,195.223 175.223,188 184,188C192.774,188.01 199.99,195.226 200,204ZM52.793,68L211.207,68L199.907,130.147C198.876,135.831 193.878,140.002 188.102,140L65.884,140L52.793,68Z" style="fill-rule:nonzero;"/>
    </g>
</svg>
