<?xml version="1.0" encoding="UTF-8" standalone="no"?>
<!DOCTYPE svg PUBLIC "-//W3C//DTD SVG 1.1//EN" "http://www.w3.org/Graphics/SVG/1.1/DTD/svg11.dtd">
<svg width="30" height="30" viewBox="0 0 30 30" version="1.1" xmlns="http://www.w3.org/2000/svg" id="root" xml:space="preserve" fill="black" style="fill-rule:evenodd;clip-rule:evenodd;stroke-linejoin:round;stroke-miterlimit:2;">
    <g transform="matrix(0.139932,0,0,0.139932,-2.91133,-2.9092)">
        <path d="M228,128C228,127.979 228,127.958 228,127.936C228,73.078 182.858,27.936 128,27.936C73.142,27.936 28,73.078 28,127.936C28,156.086 39.886,182.967 60.71,201.91C60.953,202.199 61.237,202.452 61.552,202.661C99.224,236.282 156.779,236.281 194.45,202.659C194.764,202.451 195.046,202.199 195.288,201.911C216.121,183.002 228.012,156.135 228,128ZM36,128C36,127.979 36,127.957 36,127.936C36,77.466 77.53,35.936 128,35.936C178.47,35.936 220,77.466 220,127.936C220,152.269 210.346,175.635 193.171,192.872C183.245,176.25 167.305,164.058 148.664,158.832C163.005,151.203 172,136.229 172,119.985C172,95.848 152.138,75.985 128,75.985C103.862,75.985 84,95.848 84,119.985C84,136.229 92.995,151.203 107.336,158.832C88.695,164.058 72.755,176.25 62.829,192.872C45.642,175.668 35.985,152.317 36,128ZM128,156C108.251,156 92,139.749 92,120C92,100.251 108.251,84 128,84C147.749,84 164,100.251 164,120C163.978,139.741 147.741,155.978 128,156ZM68.865,198.417C80.935,177.17 103.563,164 128,164C152.436,164 175.065,177.17 187.135,198.417C153.104,227.076 102.895,227.075 68.865,198.417Z" style="fill-rule:nonzero;"/>
    </g>
</svg>
