<svg width="117" height="59" viewBox="0 0 117 59" fill="none" xmlns="http://www.w3.org/2000/svg">
  <g id='root'>
    <rect x="29.1362" width="13.7191" height="13.7191" transform="rotate(45 29.1362 0)" fill="current"/>
    <rect x="48.5715" width="13.7191" height="13.7191" transform="rotate(45 48.5715 0)" fill="current"/>
    <rect x="68.0068" width="13.7191" height="13.7191" transform="rotate(45 68.0068 0)" fill="current"/>
    <rect x="9.70081" width="13.7191" height="13.7191" transform="rotate(45 9.70081 0)" fill="current"/>
    <rect x="106.877" width="13.7191" height="13.7191" transform="rotate(45 106.877 0)" fill="current"/>
    <rect x="87.442" width="13.7191" height="13.7191" transform="rotate(45 87.442 0)" fill="current"/>
    <rect x="29.1362" y="19.6895" width="13.7191" height="13.7191" transform="rotate(45 29.1362 19.6895)" fill="current"/>
    <rect x="48.5715" y="19.6895" width="13.7191" height="13.7191" transform="rotate(45 48.5715 19.6895)" fill="current"/>
    <rect x="68.0068" y="19.6895" width="13.7191" height="13.7191" transform="rotate(45 68.0068 19.6895)" fill="current"/>
    <rect x="9.70081" y="19.6895" width="13.7191" height="13.7191" transform="rotate(45 9.70081 19.6895)" fill="current"/>
    <rect x="106.877" y="19.6895" width="13.7191" height="13.7191" transform="rotate(45 106.877 19.6895)" fill="current"/>
    <rect x="87.442" y="19.6895" width="13.7191" height="13.7191" transform="rotate(45 87.442 19.6895)" fill="current"/>
    <rect x="29.1362" y="39.3779" width="13.7191" height="13.7191" transform="rotate(45 29.1362 39.3779)" fill="current"/>
    <rect x="48.5715" y="39.3779" width="13.7191" height="13.7191" transform="rotate(45 48.5715 39.3779)" fill="current"/>
    <rect x="68.0068" y="39.3779" width="13.7191" height="13.7191" transform="rotate(45 68.0068 39.3779)" fill="current"/>
    <rect x="9.70081" y="39.3779" width="13.7191" height="13.7191" transform="rotate(45 9.70081 39.3779)" fill="current"/>
    <rect x="106.877" y="39.3779" width="13.7191" height="13.7191" transform="rotate(45 106.877 39.3779)" fill="current"/>
    <rect x="87.442" y="39.3779" width="13.7191" height="13.7191" transform="rotate(45 87.442 39.3779)" fill="current"/>
  </g>
</svg>
