<?xml version="1.0" encoding="UTF-8" standalone="no"?>
<!DOCTYPE svg PUBLIC "-//W3C//DTD SVG 1.1//EN" "http://www.w3.org/Graphics/SVG/1.1/DTD/svg11.dtd">
<svg width="100%" height="100%" viewBox="0 0 297 290" version="1.1" xmlns="http://www.w3.org/2000/svg" xmlns:xlink="http://www.w3.org/1999/xlink" xml:space="preserve" xmlns:serif="http://www.serif.com/" style="fill-rule:evenodd;clip-rule:evenodd;stroke-linejoin:round;stroke-miterlimit:2;">
    <g transform="matrix(1,0,0,1,-656.343,-19.146)">
        <path d="M668.522,31.326L668.522,232.501L869.698,31.326L668.522,31.326Z" style="fill:rgb(174,220,236);fill-rule:nonzero;"/>
        <path d="M869.698,31.326L668.522,232.501L668.522,232.759L869.955,31.326L869.698,31.326Z" style="fill:rgb(174,220,236);fill-rule:nonzero;"/>
        <path d="M940.579,296.796L940.579,109.236L753.02,296.796L940.579,296.796Z" style="fill:rgb(174,220,236);fill-rule:nonzero;"/>
        <path d="M940.579,58.562L702.345,296.796L736.1,296.796L940.579,92.318L940.579,58.562Z" style="fill:rgb(174,220,236);fill-rule:nonzero;"/>
        <path d="M736.1,296.796L753.02,296.796L940.579,109.236L940.579,92.318L736.1,296.796Z" style="fill:rgb(206,234,244);fill-rule:nonzero;"/>
        <path d="M940.579,31.326L869.955,31.326L668.522,232.759L668.522,296.796L702.345,296.796L940.579,58.562L940.579,31.326Z" style="fill:rgb(206,234,244);fill-rule:nonzero;"/>
        <rect x="656.343" y="19.146" width="12.179" height="289.83" style="fill:white;fill-rule:nonzero;"/>
        <rect x="668.522" y="19.146" width="3.065" height="289.83" style="fill:rgb(229,229,229);fill-rule:nonzero;"/>
        <rect x="940.329" y="19.146" width="12.18" height="289.83" style="fill:white;fill-rule:nonzero;"/>
        <rect x="937.265" y="19.146" width="3.064" height="289.83" style="fill:rgb(229,229,229);fill-rule:nonzero;"/>
        <rect x="752.919" y="31.326" width="3.064" height="277.65" style="fill:rgb(229,229,229);fill-rule:nonzero;"/>
        <rect x="743.765" y="31.326" width="3.064" height="277.65" style="fill:rgb(229,229,229);fill-rule:nonzero;"/>
        <rect x="668.522" y="19.146" width="283.987" height="12.18" style="fill:white;fill-rule:nonzero;"/>
        <rect x="668.522" y="31.326" width="268.743" height="3.065" style="fill:rgb(229,229,229);fill-rule:nonzero;"/>
        <rect x="746.829" y="19.146" width="6.09" height="289.83" style="fill:white;fill-rule:nonzero;"/>
        <rect x="852.868" y="31.326" width="3.065" height="277.65" style="fill:rgb(229,229,229);fill-rule:nonzero;"/>
        <rect x="862.022" y="31.326" width="3.065" height="277.65" style="fill:rgb(229,229,229);fill-rule:nonzero;"/>
        <rect x="855.933" y="19.146" width="6.089" height="289.83" style="fill:white;fill-rule:nonzero;"/>
        <rect x="668.771" y="296.796" width="283.987" height="12.18" style="fill:white;fill-rule:nonzero;"/>
        <rect x="668.771" y="293.731" width="268.743" height="3.065" style="fill:rgb(229,229,229);fill-rule:nonzero;"/>
    </g>
</svg>
