<?xml version="1.0" encoding="UTF-8" standalone="no"?>
<!DOCTYPE svg PUBLIC "-//W3C//DTD SVG 1.1//EN" "http://www.w3.org/Graphics/SVG/1.1/DTD/svg11.dtd">
<svg width="100%" height="100%" viewBox="0 0 132 260" version="1.1" xmlns="http://www.w3.org/2000/svg" xmlns:xlink="http://www.w3.org/1999/xlink" xml:space="preserve" xmlns:serif="http://www.serif.com/" style="fill-rule:evenodd;clip-rule:evenodd;stroke-linejoin:round;stroke-miterlimit:2;">
    <g transform="matrix(1,0,0,1,-1832.14,-46.211)">
        <rect x="1842.19" y="56.211" width="111.81" height="249.202" style="fill:white;fill-rule:nonzero;"/>
        <path d="M1832.14,305.413L1842.14,305.413L1842.14,56.211L1832.14,46.211L1832.14,305.413Z" style="fill:rgb(242,242,242);fill-rule:nonzero;"/>
        <path d="M1954,305.413L1964,305.413L1964,46.211L1954,56.211L1954,305.413Z" style="fill:rgb(242,242,242);fill-rule:nonzero;"/>
        <path d="M1954,56.211L1964,46.211L1832.14,46.211L1842.14,56.211L1954,56.211Z" style="fill:rgb(242,242,242);fill-rule:nonzero;"/>
        <rect x="1832.14" y="46.211" width="3.46" height="259.202" style="fill:rgb(242,242,242);fill-rule:nonzero;"/>
        <rect x="1835.6" y="49.663" width="3.45" height="255.75" style="fill:rgb(229,229,229);fill-rule:nonzero;"/>
        <rect x="1838.81" y="49.663" width="0.47" height="255.75" style="fill:rgb(204,204,204);fill-rule:nonzero;"/>
        <rect x="1956.81" y="49.663" width="0.47" height="255.75" style="fill:rgb(204,204,204);fill-rule:nonzero;"/>
        <rect x="1960.55" y="46.211" width="3.45" height="259.202" style="fill:white;fill-rule:nonzero;"/>
        <rect x="1832.14" y="46.211" width="131.86" height="3.452" style="fill:rgb(242,242,242);fill-rule:nonzero;"/>
        <rect x="1835.6" y="49.663" width="124.95" height="3.452" style="fill:rgb(229,229,229);fill-rule:nonzero;"/>
        <rect x="1957.1" y="49.663" width="3.45" height="255.75" style="fill:rgb(229,229,229);fill-rule:nonzero;"/>
        <rect x="1839.28" y="53.115" width="117.82" height="0.473" style="fill:rgb(204,204,204);fill-rule:nonzero;"/>
        <rect x="1842.19" y="56.211" width="0.99" height="249.202" style="fill:rgb(229,229,229);fill-rule:nonzero;"/>
        <rect x="1953.01" y="56.211" width="0.99" height="249.202" style="fill:rgb(229,229,229);fill-rule:nonzero;"/>
        <rect x="1842.19" y="56.211" width="111.81" height="0.988" style="fill:rgb(229,229,229);fill-rule:nonzero;"/>
        <rect x="1854.6" y="212.146" width="4.33" height="82" style="fill:rgb(229,229,229);fill-rule:nonzero;"/>
        <rect x="1937.26" y="212.146" width="4.34" height="82" style="fill:rgb(229,229,229);fill-rule:nonzero;"/>
        <rect x="1854.6" y="289.812" width="87" height="4.334" style="fill:rgb(229,229,229);fill-rule:nonzero;"/>
        <rect x="1858.93" y="207.457" width="0.47" height="82.355" style="fill:rgb(204,204,204);fill-rule:nonzero;"/>
        <rect x="1936.79" y="207.457" width="0.47" height="82.355" style="fill:rgb(204,204,204);fill-rule:nonzero;"/>
        <rect x="1858.93" y="289.339" width="78.33" height="0.473" style="fill:rgb(204,204,204);fill-rule:nonzero;"/>
        <rect x="1854.6" y="73.813" width="4.33" height="138.333" style="fill:rgb(229,229,229);fill-rule:nonzero;"/>
        <rect x="1937.26" y="73.813" width="4.34" height="138.333" style="fill:rgb(229,229,229);fill-rule:nonzero;"/>
        <rect x="1854.6" y="69.479" width="87" height="4.334" style="fill:rgb(229,229,229);fill-rule:nonzero;"/>
        <rect x="1858.93" y="73.813" width="0.47" height="133.645" style="fill:rgb(204,204,204);fill-rule:nonzero;"/>
        <rect x="1936.79" y="73.813" width="0.47" height="133.644" style="fill:rgb(204,204,204);fill-rule:nonzero;"/>
        <rect x="1858.93" y="73.813" width="78.33" height="0.473" style="fill:rgb(204,204,204);fill-rule:nonzero;"/>
        <path d="M1936.79,100.874L1859.4,178.747L1859.4,229.007L1936.79,151.134L1936.79,100.874Z" style="fill:white;fill-rule:nonzero;"/>
        <path d="M1936.79,74.286L1859.4,74.286L1859.4,178.747L1936.79,100.874L1936.79,74.286Z" style="fill:white;fill-rule:nonzero;"/>
        <path d="M1936.79,167.711L1859.4,245.583L1859.4,256.61L1936.79,178.737L1936.79,167.711Z" style="fill:white;fill-rule:nonzero;"/>
        <path d="M1859.4,256.61L1859.4,289.339L1936.79,289.339L1936.79,178.737L1859.4,256.61Z" style="fill:white;fill-rule:nonzero;"/>
        <path d="M1936.79,151.134L1859.4,229.007L1859.4,245.583L1936.79,167.711L1936.79,151.134Z" style="fill:white;fill-rule:nonzero;"/>
        <path d="M1851.1,194.075C1851.1,195.456 1849.98,196.575 1848.6,196.575C1847.21,196.575 1846.1,195.456 1846.1,194.075L1846.1,174.562C1846.1,173.181 1847.21,172.062 1848.6,172.062C1849.98,172.062 1851.1,173.181 1851.1,174.562L1851.1,194.075Z" style="fill:rgb(128,128,128);fill-rule:nonzero;"/>
        <path d="M1850.35,193.729C1850.35,194.695 1849.56,195.479 1848.6,195.479C1847.63,195.479 1846.85,194.695 1846.85,193.729C1846.85,192.762 1847.63,191.979 1848.6,191.979C1849.56,191.979 1850.35,192.762 1850.35,193.729Z" style="fill:rgb(153,153,153);fill-rule:nonzero;"/>
        <path d="M1860.43,180.562C1860.43,181.137 1859.96,181.604 1859.39,181.604L1848.97,181.604C1848.4,181.604 1847.93,181.137 1847.93,180.562C1847.93,179.986 1848.4,179.52 1848.97,179.52L1859.39,179.52C1859.96,179.52 1860.43,179.986 1860.43,180.562Z" style="fill:rgb(153,153,153);fill-rule:nonzero;"/>
    </g>
</svg>
