<?xml version="1.0" encoding="UTF-8" standalone="no"?>
<!DOCTYPE svg PUBLIC "-//W3C//DTD SVG 1.1//EN" "http://www.w3.org/Graphics/SVG/1.1/DTD/svg11.dtd">
<svg width="100%" height="100%" viewBox="0 0 132 260" version="1.1" xmlns="http://www.w3.org/2000/svg" xmlns:xlink="http://www.w3.org/1999/xlink" xml:space="preserve" xmlns:serif="http://www.serif.com/" style="fill-rule:evenodd;clip-rule:evenodd;stroke-linejoin:round;stroke-miterlimit:2;">
    <g transform="matrix(1,0,0,1,-1420.09,-42.503)">
        <rect x="1430.14" y="52.503" width="111.81" height="249.203" style="fill:white;fill-rule:nonzero;"/>
        <path d="M1420.09,301.706L1430.09,301.706L1430.09,52.503L1420.09,42.503L1420.09,301.706Z" style="fill:rgb(242,242,242);fill-rule:nonzero;"/>
        <path d="M1541.95,301.706L1551.95,301.706L1551.95,42.503L1541.95,52.503L1541.95,301.706Z" style="fill:rgb(242,242,242);fill-rule:nonzero;"/>
        <path d="M1541.95,52.503L1551.95,42.503L1420.09,42.503L1430.09,52.503L1541.95,52.503Z" style="fill:rgb(242,242,242);fill-rule:nonzero;"/>
        <rect x="1420.09" y="42.503" width="3.45" height="259.203" style="fill:rgb(242,242,242);fill-rule:nonzero;"/>
        <rect x="1423.54" y="45.956" width="3.46" height="255.75" style="fill:rgb(229,229,229);fill-rule:nonzero;"/>
        <rect x="1426.76" y="45.956" width="0.47" height="255.75" style="fill:rgb(204,204,204);fill-rule:nonzero;"/>
        <rect x="1544.76" y="45.956" width="0.47" height="255.75" style="fill:rgb(204,204,204);fill-rule:nonzero;"/>
        <rect x="1548.5" y="42.503" width="3.45" height="259.203" style="fill:white;fill-rule:nonzero;"/>
        <rect x="1420.09" y="42.503" width="131.86" height="3.453" style="fill:rgb(242,242,242);fill-rule:nonzero;"/>
        <rect x="1423.54" y="45.956" width="124.96" height="3.452" style="fill:rgb(229,229,229);fill-rule:nonzero;"/>
        <rect x="1545.04" y="45.956" width="3.46" height="255.75" style="fill:rgb(229,229,229);fill-rule:nonzero;"/>
        <rect x="1427.23" y="49.408" width="117.81" height="0.472" style="fill:rgb(204,204,204);fill-rule:nonzero;"/>
        <rect x="1430.14" y="52.503" width="0.99" height="249.203" style="fill:rgb(229,229,229);fill-rule:nonzero;"/>
        <rect x="1540.96" y="52.503" width="0.99" height="249.203" style="fill:rgb(229,229,229);fill-rule:nonzero;"/>
        <rect x="1430.14" y="52.503" width="111.81" height="0.989" style="fill:rgb(229,229,229);fill-rule:nonzero;"/>
        <rect x="1442.54" y="230.771" width="4.34" height="59.667" style="fill:rgb(229,229,229);fill-rule:nonzero;"/>
        <rect x="1525.21" y="230.771" width="4.33" height="59.667" style="fill:rgb(229,229,229);fill-rule:nonzero;"/>
        <rect x="1442.54" y="230.771" width="87" height="4.334" style="fill:rgb(229,229,229);fill-rule:nonzero;"/>
        <rect x="1442.54" y="286.104" width="87" height="4.334" style="fill:rgb(229,229,229);fill-rule:nonzero;"/>
        <rect x="1446.88" y="235.105" width="0.47" height="50.999" style="fill:rgb(204,204,204);fill-rule:nonzero;"/>
        <rect x="1524.74" y="235.105" width="0.47" height="50.999" style="fill:rgb(204,204,204);fill-rule:nonzero;"/>
        <rect x="1446.88" y="285.631" width="78.33" height="0.473" style="fill:rgb(204,204,204);fill-rule:nonzero;"/>
        <rect x="1446.88" y="235.105" width="78.33" height="0.473" style="fill:rgb(204,204,204);fill-rule:nonzero;"/>
        <rect x="1442.54" y="70.105" width="4.34" height="138.333" style="fill:rgb(229,229,229);fill-rule:nonzero;"/>
        <rect x="1525.21" y="70.105" width="4.33" height="138.333" style="fill:rgb(229,229,229);fill-rule:nonzero;"/>
        <rect x="1442.54" y="65.771" width="87" height="4.334" style="fill:rgb(229,229,229);fill-rule:nonzero;"/>
        <rect x="1442.54" y="204.104" width="87" height="4.334" style="fill:rgb(229,229,229);fill-rule:nonzero;"/>
        <rect x="1446.88" y="70.105" width="0.47" height="133.645" style="fill:rgb(204,204,204);fill-rule:nonzero;"/>
        <rect x="1524.74" y="70.105" width="0.47" height="133.645" style="fill:rgb(204,204,204);fill-rule:nonzero;"/>
        <rect x="1446.88" y="203.631" width="78.33" height="0.473" style="fill:rgb(204,204,204);fill-rule:nonzero;"/>
        <rect x="1446.88" y="70.105" width="78.33" height="0.473" style="fill:rgb(204,204,204);fill-rule:nonzero;"/>
        <path d="M1447.35,70.578L1447.35,139.252L1515.6,70.578L1447.35,70.578Z" style="fill:white;fill-rule:nonzero;"/>
        <path d="M1524.74,70.578L1515.6,70.578L1447.35,139.252L1447.35,189.512L1524.74,111.64L1524.74,70.578Z" style="fill:white;fill-rule:nonzero;"/>
        <path d="M1524.74,128.216L1449.79,203.631L1460.75,203.631L1524.74,139.242L1524.74,128.216Z" style="fill:white;fill-rule:nonzero;"/>
        <path d="M1524.74,139.242L1460.75,203.631L1524.74,203.631L1524.74,139.242Z" style="fill:white;fill-rule:nonzero;"/>
        <path d="M1524.74,111.64L1447.35,189.512L1447.35,203.631L1449.79,203.631L1524.74,128.216L1524.74,111.64Z" style="fill:white;fill-rule:nonzero;"/>
        <path d="M1439.04,190.368C1439.04,191.749 1437.92,192.868 1436.54,192.868C1435.16,192.868 1434.04,191.749 1434.04,190.368L1434.04,170.854C1434.04,169.473 1435.16,168.354 1436.54,168.354C1437.92,168.354 1439.04,169.473 1439.04,170.854L1439.04,190.368Z" style="fill:rgb(128,128,128);fill-rule:nonzero;"/>
        <path d="M1438.29,190.021C1438.29,190.988 1437.51,191.771 1436.54,191.771C1435.58,191.771 1434.79,190.988 1434.79,190.021C1434.79,189.054 1435.58,188.271 1436.54,188.271C1437.51,188.271 1438.29,189.054 1438.29,190.021Z" style="fill:rgb(153,153,153);fill-rule:nonzero;"/>
        <path d="M1448.38,176.854C1448.38,177.429 1447.91,177.896 1447.34,177.896L1436.92,177.896C1436.34,177.896 1435.88,177.429 1435.88,176.854C1435.88,176.279 1436.34,175.812 1436.92,175.812L1447.34,175.812C1447.91,175.812 1448.38,176.279 1448.38,176.854Z" style="fill:rgb(153,153,153);fill-rule:nonzero;"/>
        <path d="M1471.4,235.578L1447.35,259.782L1447.35,285.631L1471.61,285.631L1521.35,235.578L1471.4,235.578Z" style="fill:white;fill-rule:nonzero;"/>
        <path d="M1447.35,235.578L1447.35,259.782L1471.4,235.578L1447.35,235.578Z" style="fill:white;fill-rule:nonzero;"/>
        <path d="M1524.74,235.578L1521.35,235.578L1471.61,285.631L1488.08,285.631L1524.74,248.747L1524.74,235.578Z" style="fill:white;fill-rule:nonzero;"/>
        <path d="M1524.74,248.747L1488.08,285.631L1499.04,285.631L1524.74,259.773L1524.74,248.747Z" style="fill:white;fill-rule:nonzero;"/>
        <path d="M1524.74,259.773L1499.04,285.631L1524.74,285.631L1524.74,259.773Z" style="fill:white;fill-rule:nonzero;"/>
    </g>
</svg>
