<?xml version="1.0" encoding="UTF-8" standalone="no"?>
<!DOCTYPE svg PUBLIC "-//W3C//DTD SVG 1.1//EN" "http://www.w3.org/Graphics/SVG/1.1/DTD/svg11.dtd">
<svg width="100%" height="100%" viewBox="0 0 132 260" version="1.1" xmlns="http://www.w3.org/2000/svg" xmlns:xlink="http://www.w3.org/1999/xlink" xml:space="preserve" xmlns:serif="http://www.serif.com/" style="fill-rule:evenodd;clip-rule:evenodd;stroke-linejoin:round;stroke-miterlimit:2;">
    <g transform="matrix(1,0,0,1,-1221.09,-42.503)">
        <rect x="1231.14" y="52.503" width="111.81" height="249.203" style="fill:white;fill-rule:nonzero;"/>
        <path d="M1221.09,301.706L1231.09,301.706L1231.09,52.503L1221.09,42.503L1221.09,301.706Z" style="fill:rgb(242,242,242);fill-rule:nonzero;"/>
        <path d="M1342.95,301.706L1352.95,301.706L1352.95,42.503L1342.95,52.503L1342.95,301.706Z" style="fill:rgb(242,242,242);fill-rule:nonzero;"/>
        <path d="M1342.95,52.503L1352.95,42.503L1221.09,42.503L1231.09,52.503L1342.95,52.503Z" style="fill:rgb(242,242,242);fill-rule:nonzero;"/>
        <rect x="1221.09" y="42.503" width="3.45" height="259.203" style="fill:rgb(242,242,242);fill-rule:nonzero;"/>
        <rect x="1224.54" y="45.956" width="3.46" height="255.75" style="fill:rgb(229,229,229);fill-rule:nonzero;"/>
        <rect x="1227.76" y="45.956" width="0.47" height="255.75" style="fill:rgb(204,204,204);fill-rule:nonzero;"/>
        <rect x="1345.76" y="45.956" width="0.47" height="255.75" style="fill:rgb(204,204,204);fill-rule:nonzero;"/>
        <rect x="1349.5" y="42.503" width="3.45" height="259.203" style="fill:white;fill-rule:nonzero;"/>
        <rect x="1221.09" y="42.503" width="131.86" height="3.453" style="fill:rgb(242,242,242);fill-rule:nonzero;"/>
        <rect x="1224.54" y="45.956" width="124.96" height="3.452" style="fill:rgb(229,229,229);fill-rule:nonzero;"/>
        <rect x="1346.04" y="45.956" width="3.46" height="255.75" style="fill:rgb(229,229,229);fill-rule:nonzero;"/>
        <rect x="1228.23" y="49.408" width="117.81" height="0.472" style="fill:rgb(204,204,204);fill-rule:nonzero;"/>
        <rect x="1231.14" y="52.503" width="0.99" height="249.203" style="fill:rgb(229,229,229);fill-rule:nonzero;"/>
        <rect x="1341.96" y="52.503" width="0.99" height="249.203" style="fill:rgb(229,229,229);fill-rule:nonzero;"/>
        <rect x="1231.14" y="52.503" width="111.81" height="0.989" style="fill:rgb(229,229,229);fill-rule:nonzero;"/>
        <rect x="1243.54" y="230.771" width="4.34" height="59.667" style="fill:rgb(229,229,229);fill-rule:nonzero;"/>
        <rect x="1326.21" y="230.771" width="4.33" height="59.667" style="fill:rgb(229,229,229);fill-rule:nonzero;"/>
        <rect x="1243.54" y="230.771" width="87" height="4.334" style="fill:rgb(229,229,229);fill-rule:nonzero;"/>
        <rect x="1243.54" y="286.104" width="87" height="4.334" style="fill:rgb(229,229,229);fill-rule:nonzero;"/>
        <rect x="1247.88" y="235.105" width="0.47" height="50.999" style="fill:rgb(204,204,204);fill-rule:nonzero;"/>
        <rect x="1325.74" y="235.105" width="0.47" height="50.999" style="fill:rgb(204,204,204);fill-rule:nonzero;"/>
        <rect x="1247.88" y="285.631" width="78.33" height="0.473" style="fill:rgb(204,204,204);fill-rule:nonzero;"/>
        <rect x="1247.88" y="235.105" width="78.33" height="0.473" style="fill:rgb(204,204,204);fill-rule:nonzero;"/>
        <rect x="1243.54" y="70.105" width="4.34" height="138.333" style="fill:rgb(229,229,229);fill-rule:nonzero;"/>
        <rect x="1326.21" y="70.105" width="4.33" height="138.333" style="fill:rgb(229,229,229);fill-rule:nonzero;"/>
        <rect x="1243.54" y="65.771" width="87" height="4.334" style="fill:rgb(229,229,229);fill-rule:nonzero;"/>
        <rect x="1243.54" y="204.104" width="87" height="4.334" style="fill:rgb(229,229,229);fill-rule:nonzero;"/>
        <rect x="1247.88" y="70.105" width="0.47" height="133.645" style="fill:rgb(204,204,204);fill-rule:nonzero;"/>
        <rect x="1325.74" y="70.105" width="0.47" height="133.645" style="fill:rgb(204,204,204);fill-rule:nonzero;"/>
        <rect x="1247.88" y="203.631" width="78.33" height="0.473" style="fill:rgb(204,204,204);fill-rule:nonzero;"/>
        <rect x="1247.88" y="70.105" width="78.33" height="0.473" style="fill:rgb(204,204,204);fill-rule:nonzero;"/>
        <path d="M1248.35,70.578L1248.35,139.252L1316.6,70.578L1248.35,70.578Z" style="fill:rgb(174,220,236);fill-rule:nonzero;"/>
        <path d="M1325.74,70.578L1316.6,70.578L1248.35,139.252L1248.35,189.512L1325.74,111.64L1325.74,70.578Z" style="fill:rgb(206,234,244);fill-rule:nonzero;"/>
        <path d="M1325.74,128.216L1250.79,203.631L1261.75,203.631L1325.74,139.242L1325.74,128.216Z" style="fill:rgb(206,234,244);fill-rule:nonzero;"/>
        <path d="M1325.74,139.242L1261.75,203.631L1325.74,203.631L1325.74,139.242Z" style="fill:rgb(174,220,236);fill-rule:nonzero;"/>
        <path d="M1325.74,111.64L1248.35,189.512L1248.35,203.631L1250.79,203.631L1325.74,128.216L1325.74,111.64Z" style="fill:rgb(174,220,236);fill-rule:nonzero;"/>
        <path d="M1240.04,190.368C1240.04,191.749 1238.93,192.868 1237.54,192.868C1236.16,192.868 1235.04,191.749 1235.04,190.368L1235.04,170.854C1235.04,169.473 1236.16,168.354 1237.54,168.354C1238.93,168.354 1240.04,169.473 1240.04,170.854L1240.04,190.368Z" style="fill:rgb(128,128,128);fill-rule:nonzero;"/>
        <path d="M1239.29,190.021C1239.29,190.988 1238.51,191.771 1237.54,191.771C1236.58,191.771 1235.79,190.988 1235.79,190.021C1235.79,189.054 1236.58,188.271 1237.54,188.271C1238.51,188.271 1239.29,189.054 1239.29,190.021Z" style="fill:rgb(153,153,153);fill-rule:nonzero;"/>
        <path d="M1249.38,176.854C1249.38,177.429 1248.91,177.896 1248.34,177.896L1237.92,177.896C1237.34,177.896 1236.88,177.429 1236.88,176.854C1236.88,176.279 1237.34,175.812 1237.92,175.812L1248.34,175.812C1248.91,175.812 1249.38,176.279 1249.38,176.854Z" style="fill:rgb(153,153,153);fill-rule:nonzero;"/>
        <path d="M1272.4,235.578L1248.35,259.782L1248.35,285.631L1272.61,285.631L1322.35,235.578L1272.4,235.578Z" style="fill:rgb(206,234,244);fill-rule:nonzero;"/>
        <path d="M1248.35,235.578L1248.35,259.782L1272.4,235.578L1248.35,235.578Z" style="fill:rgb(174,220,236);fill-rule:nonzero;"/>
        <path d="M1325.74,235.578L1322.35,235.578L1272.61,285.631L1289.08,285.631L1325.74,248.747L1325.74,235.578Z" style="fill:rgb(174,220,236);fill-rule:nonzero;"/>
        <path d="M1325.74,248.747L1289.08,285.631L1300.04,285.631L1325.74,259.773L1325.74,248.747Z" style="fill:rgb(206,234,244);fill-rule:nonzero;"/>
        <path d="M1325.74,259.773L1300.04,285.631L1325.74,285.631L1325.74,259.773Z" style="fill:rgb(174,220,236);fill-rule:nonzero;"/>
    </g>
</svg>
