<?xml version="1.0" encoding="UTF-8" standalone="no"?>
<!DOCTYPE svg PUBLIC "-//W3C//DTD SVG 1.1//EN" "http://www.w3.org/Graphics/SVG/1.1/DTD/svg11.dtd">
<svg width="100%" height="100%" viewBox="0 0 160 19" version="1.1" xmlns="http://www.w3.org/2000/svg" xmlns:xlink="http://www.w3.org/1999/xlink" xml:space="preserve" xmlns:serif="http://www.serif.com/" style="fill-rule:evenodd;clip-rule:evenodd;stroke-linecap:round;stroke-linejoin:round;stroke-miterlimit:1.5;">
    <g transform="matrix(1,0,0,1,-10.8179,-17.9)">
        <g transform="matrix(1.44444,0,0,1,-8.88889,0)">
            <path d="M20,20L110,20" style="fill:none;stroke:black;stroke-width:0.12px;"/>
        </g>
        <g transform="matrix(1,0,0,1,2,-5)">
            <circle cx="18" cy="25" r="2"/>
        </g>
        <g transform="matrix(1,0,0,1,66.8687,-5)">
            <circle cx="18" cy="25" r="2" style="fill:white;stroke:black;stroke-width:0.2px;"/>
        </g>
        <g transform="matrix(1,0,0,1,132,-5)">
            <circle cx="18" cy="25" r="2" style="fill:white;stroke:black;stroke-width:0.2px;"/>
        </g>
        <g transform="matrix(1,0,0,1,0.384458,1.50879)">
            <g transform="matrix(6,0,0,6,10.202,28)">
                <path d="M0.382,0.01C0.32,0.01 0.265,-0.005 0.216,-0.035C0.167,-0.066 0.129,-0.108 0.101,-0.164C0.073,-0.22 0.06,-0.286 0.06,-0.363C0.06,-0.44 0.073,-0.507 0.101,-0.563C0.129,-0.619 0.167,-0.662 0.216,-0.692C0.265,-0.722 0.32,-0.737 0.382,-0.737C0.419,-0.737 0.454,-0.732 0.487,-0.721C0.519,-0.71 0.549,-0.695 0.575,-0.674C0.601,-0.653 0.622,-0.628 0.64,-0.599C0.657,-0.569 0.669,-0.536 0.676,-0.499L0.583,-0.499C0.578,-0.524 0.569,-0.546 0.556,-0.564C0.544,-0.583 0.529,-0.599 0.51,-0.612C0.492,-0.625 0.472,-0.635 0.451,-0.642C0.429,-0.648 0.406,-0.651 0.382,-0.651C0.339,-0.651 0.299,-0.64 0.264,-0.618C0.229,-0.596 0.201,-0.564 0.181,-0.521C0.16,-0.478 0.15,-0.425 0.15,-0.363C0.15,-0.301 0.16,-0.249 0.181,-0.206C0.202,-0.163 0.229,-0.131 0.265,-0.109C0.3,-0.087 0.339,-0.076 0.382,-0.076C0.406,-0.076 0.429,-0.08 0.451,-0.086C0.472,-0.093 0.492,-0.103 0.51,-0.115C0.529,-0.128 0.544,-0.144 0.556,-0.163C0.569,-0.182 0.578,-0.204 0.583,-0.229L0.676,-0.229C0.67,-0.192 0.658,-0.159 0.64,-0.129C0.623,-0.1 0.601,-0.075 0.575,-0.054C0.549,-0.033 0.52,-0.017 0.487,-0.007C0.454,0.004 0.419,0.01 0.382,0.01Z" style="fill-rule:nonzero;"/>
            </g>
            <g transform="matrix(6,0,0,6,14.5848,28)">
                <path d="M0.077,-0L0.077,-0.546L0.162,-0.546L0.162,-0.462L0.168,-0.462C0.178,-0.49 0.196,-0.512 0.222,-0.529C0.248,-0.545 0.277,-0.554 0.31,-0.554C0.316,-0.554 0.324,-0.554 0.333,-0.553C0.342,-0.553 0.349,-0.553 0.354,-0.552L0.354,-0.464C0.351,-0.465 0.345,-0.465 0.334,-0.467C0.324,-0.468 0.313,-0.469 0.301,-0.469C0.275,-0.469 0.252,-0.463 0.231,-0.452C0.211,-0.441 0.194,-0.427 0.183,-0.407C0.171,-0.388 0.165,-0.367 0.165,-0.342L0.165,-0L0.077,-0Z" style="fill-rule:nonzero;"/>
            </g>
            <g transform="matrix(6,0,0,6,16.7439,28)">
                <path d="M0.307,0.012C0.254,0.012 0.208,0 0.17,-0.023C0.132,-0.047 0.102,-0.08 0.082,-0.122C0.061,-0.164 0.051,-0.213 0.051,-0.269C0.051,-0.325 0.061,-0.374 0.081,-0.417C0.101,-0.459 0.13,-0.493 0.167,-0.517C0.204,-0.541 0.247,-0.553 0.296,-0.553C0.325,-0.553 0.354,-0.548 0.382,-0.538C0.41,-0.529 0.436,-0.513 0.459,-0.492C0.482,-0.471 0.5,-0.443 0.514,-0.408C0.527,-0.373 0.534,-0.33 0.534,-0.28L0.534,-0.243L0.11,-0.243L0.11,-0.317L0.487,-0.317L0.446,-0.29C0.446,-0.326 0.44,-0.358 0.429,-0.385C0.418,-0.413 0.401,-0.435 0.379,-0.451C0.357,-0.467 0.329,-0.475 0.296,-0.475C0.264,-0.475 0.235,-0.467 0.212,-0.45C0.188,-0.434 0.171,-0.413 0.158,-0.387C0.146,-0.362 0.14,-0.334 0.14,-0.304L0.14,-0.255C0.14,-0.215 0.147,-0.18 0.161,-0.152C0.175,-0.124 0.194,-0.103 0.219,-0.088C0.245,-0.074 0.274,-0.066 0.307,-0.066C0.329,-0.066 0.348,-0.069 0.366,-0.076C0.383,-0.082 0.398,-0.091 0.411,-0.104C0.424,-0.116 0.434,-0.132 0.44,-0.15L0.525,-0.127C0.517,-0.1 0.503,-0.076 0.482,-0.055C0.462,-0.034 0.437,-0.018 0.407,-0.006C0.378,0.006 0.344,0.012 0.307,0.012Z" style="fill-rule:nonzero;"/>
            </g>
            <g transform="matrix(6,0,0,6,20.3006,28)">
                <path d="M0.23,0.013C0.195,0.013 0.164,0.006 0.136,-0.007C0.108,-0.02 0.085,-0.039 0.069,-0.064C0.052,-0.089 0.044,-0.119 0.044,-0.155C0.044,-0.187 0.05,-0.212 0.063,-0.231C0.075,-0.251 0.091,-0.266 0.112,-0.278C0.133,-0.289 0.156,-0.297 0.181,-0.303C0.206,-0.308 0.231,-0.313 0.256,-0.316C0.289,-0.32 0.315,-0.323 0.336,-0.326C0.356,-0.328 0.372,-0.332 0.382,-0.337C0.392,-0.343 0.396,-0.352 0.396,-0.366L0.396,-0.369C0.396,-0.391 0.392,-0.411 0.384,-0.427C0.375,-0.442 0.363,-0.454 0.346,-0.463C0.329,-0.471 0.308,-0.476 0.282,-0.476C0.256,-0.476 0.234,-0.472 0.215,-0.463C0.197,-0.455 0.182,-0.445 0.17,-0.433C0.159,-0.421 0.15,-0.408 0.144,-0.396L0.06,-0.423C0.074,-0.457 0.092,-0.483 0.116,-0.501C0.14,-0.52 0.166,-0.533 0.195,-0.541C0.223,-0.549 0.252,-0.553 0.28,-0.553C0.298,-0.553 0.319,-0.551 0.342,-0.546C0.365,-0.542 0.388,-0.533 0.409,-0.52C0.431,-0.507 0.449,-0.488 0.463,-0.462C0.477,-0.437 0.484,-0.403 0.484,-0.36L0.484,-0L0.398,-0L0.398,-0.074L0.392,-0.074C0.386,-0.062 0.376,-0.048 0.362,-0.035C0.349,-0.021 0.331,-0.01 0.309,-0.001C0.287,0.008 0.261,0.013 0.23,0.013ZM0.245,-0.065C0.278,-0.065 0.305,-0.071 0.328,-0.084C0.35,-0.097 0.367,-0.113 0.379,-0.134C0.391,-0.154 0.396,-0.175 0.396,-0.197L0.396,-0.273C0.393,-0.269 0.385,-0.265 0.373,-0.261C0.361,-0.258 0.347,-0.255 0.332,-0.252C0.316,-0.25 0.301,-0.248 0.287,-0.246C0.272,-0.244 0.261,-0.243 0.252,-0.242C0.231,-0.239 0.212,-0.235 0.193,-0.228C0.175,-0.222 0.16,-0.213 0.149,-0.2C0.138,-0.188 0.132,-0.172 0.132,-0.151C0.132,-0.132 0.137,-0.116 0.147,-0.104C0.157,-0.091 0.17,-0.081 0.187,-0.075C0.204,-0.068 0.223,-0.065 0.245,-0.065Z" style="fill-rule:nonzero;"/>
            </g>
            <g transform="matrix(6,0,0,6,23.6697,28)">
                <path d="M0.292,-0.546L0.292,-0.471L0.01,-0.471L0.01,-0.546L0.292,-0.546ZM0.092,-0.676L0.18,-0.676L0.18,-0.142C0.18,-0.117 0.185,-0.099 0.195,-0.088C0.205,-0.077 0.221,-0.071 0.244,-0.071C0.25,-0.071 0.257,-0.072 0.265,-0.073C0.274,-0.075 0.282,-0.076 0.289,-0.077L0.307,-0.003C0.298,0 0.288,0.003 0.276,0.004C0.265,0.006 0.253,0.007 0.242,0.007C0.194,0.007 0.158,-0.006 0.131,-0.031C0.105,-0.055 0.092,-0.09 0.092,-0.135L0.092,-0.676Z" style="fill-rule:nonzero;"/>
            </g>
            <g transform="matrix(6,0,0,6,25.574,28)">
                <path d="M0.307,0.012C0.254,0.012 0.208,0 0.17,-0.023C0.132,-0.047 0.102,-0.08 0.082,-0.122C0.061,-0.164 0.051,-0.213 0.051,-0.269C0.051,-0.325 0.061,-0.374 0.081,-0.417C0.101,-0.459 0.13,-0.493 0.167,-0.517C0.204,-0.541 0.247,-0.553 0.296,-0.553C0.325,-0.553 0.354,-0.548 0.382,-0.538C0.41,-0.529 0.436,-0.513 0.459,-0.492C0.482,-0.471 0.5,-0.443 0.514,-0.408C0.527,-0.373 0.534,-0.33 0.534,-0.28L0.534,-0.243L0.11,-0.243L0.11,-0.317L0.487,-0.317L0.446,-0.29C0.446,-0.326 0.44,-0.358 0.429,-0.385C0.418,-0.413 0.401,-0.435 0.379,-0.451C0.357,-0.467 0.329,-0.475 0.296,-0.475C0.264,-0.475 0.235,-0.467 0.212,-0.45C0.188,-0.434 0.171,-0.413 0.158,-0.387C0.146,-0.362 0.14,-0.334 0.14,-0.304L0.14,-0.255C0.14,-0.215 0.147,-0.18 0.161,-0.152C0.175,-0.124 0.194,-0.103 0.219,-0.088C0.245,-0.074 0.274,-0.066 0.307,-0.066C0.329,-0.066 0.348,-0.069 0.366,-0.076C0.383,-0.082 0.398,-0.091 0.411,-0.104C0.424,-0.116 0.434,-0.132 0.44,-0.15L0.525,-0.127C0.517,-0.1 0.503,-0.076 0.482,-0.055C0.462,-0.034 0.437,-0.018 0.407,-0.006C0.378,0.006 0.344,0.012 0.307,0.012Z" style="fill-rule:nonzero;"/>
            </g>
            <g transform="matrix(6,0,0,6,10.1287,34)">
                <path d="M0.282,0.012C0.236,0.012 0.196,0 0.162,-0.023C0.127,-0.046 0.1,-0.079 0.08,-0.121C0.061,-0.163 0.051,-0.214 0.051,-0.271C0.051,-0.329 0.061,-0.379 0.08,-0.421C0.1,-0.463 0.127,-0.496 0.162,-0.519C0.197,-0.541 0.237,-0.553 0.282,-0.553C0.318,-0.553 0.346,-0.547 0.367,-0.535C0.388,-0.523 0.404,-0.51 0.415,-0.495C0.426,-0.481 0.435,-0.468 0.44,-0.458L0.447,-0.458L0.447,-0.728L0.535,-0.728L0.535,-0L0.45,-0L0.45,-0.084L0.44,-0.084C0.435,-0.074 0.426,-0.062 0.414,-0.047C0.403,-0.031 0.386,-0.018 0.365,-0.006C0.344,0.006 0.317,0.012 0.282,0.012ZM0.295,-0.067C0.328,-0.067 0.356,-0.076 0.379,-0.093C0.402,-0.11 0.419,-0.135 0.431,-0.166C0.442,-0.196 0.448,-0.232 0.448,-0.272C0.448,-0.313 0.442,-0.348 0.431,-0.378C0.419,-0.408 0.402,-0.432 0.379,-0.449C0.357,-0.466 0.328,-0.474 0.295,-0.474C0.26,-0.474 0.232,-0.465 0.209,-0.447C0.186,-0.429 0.169,-0.405 0.157,-0.375C0.146,-0.344 0.14,-0.31 0.14,-0.272C0.14,-0.234 0.146,-0.2 0.157,-0.169C0.169,-0.138 0.186,-0.113 0.209,-0.094C0.233,-0.076 0.261,-0.067 0.295,-0.067Z" style="fill-rule:nonzero;"/>
            </g>
            <g transform="matrix(6,0,0,6,13.8025,34)">
                <path d="M0.307,0.012C0.254,0.012 0.208,0 0.17,-0.023C0.132,-0.047 0.102,-0.08 0.082,-0.122C0.061,-0.164 0.051,-0.213 0.051,-0.269C0.051,-0.325 0.061,-0.374 0.081,-0.417C0.101,-0.459 0.13,-0.493 0.167,-0.517C0.204,-0.541 0.247,-0.553 0.296,-0.553C0.325,-0.553 0.354,-0.548 0.382,-0.538C0.41,-0.529 0.436,-0.513 0.459,-0.492C0.482,-0.471 0.5,-0.443 0.514,-0.408C0.527,-0.373 0.534,-0.33 0.534,-0.28L0.534,-0.243L0.11,-0.243L0.11,-0.317L0.487,-0.317L0.446,-0.29C0.446,-0.326 0.44,-0.358 0.429,-0.385C0.418,-0.413 0.401,-0.435 0.379,-0.451C0.357,-0.467 0.329,-0.475 0.296,-0.475C0.264,-0.475 0.235,-0.467 0.212,-0.45C0.188,-0.434 0.171,-0.413 0.158,-0.387C0.146,-0.362 0.14,-0.334 0.14,-0.304L0.14,-0.255C0.14,-0.215 0.147,-0.18 0.161,-0.152C0.175,-0.124 0.194,-0.103 0.219,-0.088C0.245,-0.074 0.274,-0.066 0.307,-0.066C0.329,-0.066 0.348,-0.069 0.366,-0.076C0.383,-0.082 0.398,-0.091 0.411,-0.104C0.424,-0.116 0.434,-0.132 0.44,-0.15L0.525,-0.127C0.517,-0.1 0.503,-0.076 0.482,-0.055C0.462,-0.034 0.437,-0.018 0.407,-0.006C0.378,0.006 0.344,0.012 0.307,0.012Z" style="fill-rule:nonzero;"/>
            </g>
            <g transform="matrix(6,0,0,6,17.3006,34)">
                <path d="M0.263,0.012C0.225,0.012 0.192,0.006 0.163,-0.005C0.134,-0.016 0.11,-0.032 0.091,-0.053C0.072,-0.075 0.059,-0.101 0.053,-0.132L0.136,-0.152C0.144,-0.122 0.159,-0.1 0.18,-0.086C0.202,-0.072 0.229,-0.065 0.262,-0.065C0.3,-0.065 0.33,-0.074 0.353,-0.09C0.375,-0.106 0.387,-0.125 0.387,-0.148C0.387,-0.167 0.38,-0.183 0.367,-0.195C0.354,-0.208 0.334,-0.217 0.307,-0.223L0.216,-0.245C0.166,-0.256 0.13,-0.274 0.105,-0.299C0.081,-0.324 0.069,-0.355 0.069,-0.394C0.069,-0.425 0.078,-0.452 0.096,-0.476C0.113,-0.5 0.137,-0.519 0.168,-0.532C0.198,-0.546 0.233,-0.553 0.271,-0.553C0.309,-0.553 0.341,-0.547 0.367,-0.536C0.393,-0.525 0.414,-0.509 0.431,-0.49C0.447,-0.47 0.46,-0.447 0.468,-0.421L0.388,-0.401C0.381,-0.42 0.368,-0.438 0.351,-0.454C0.333,-0.47 0.307,-0.478 0.272,-0.478C0.239,-0.478 0.212,-0.471 0.191,-0.456C0.169,-0.441 0.158,-0.422 0.158,-0.399C0.158,-0.379 0.166,-0.363 0.18,-0.35C0.195,-0.338 0.218,-0.328 0.25,-0.321L0.333,-0.301C0.382,-0.29 0.419,-0.271 0.442,-0.247C0.466,-0.222 0.478,-0.191 0.478,-0.154C0.478,-0.122 0.469,-0.094 0.451,-0.069C0.433,-0.044 0.408,-0.024 0.375,-0.01C0.343,0.005 0.305,0.012 0.263,0.012Z" style="fill-rule:nonzero;"/>
            </g>
            <g transform="matrix(6,0,0,6,20.4676,34)">
                <path d="M0.077,-0L0.077,-0.546L0.165,-0.546L0.165,-0L0.077,-0ZM0.122,-0.635C0.105,-0.635 0.091,-0.641 0.079,-0.652C0.067,-0.664 0.061,-0.677 0.061,-0.693C0.061,-0.71 0.067,-0.723 0.079,-0.735C0.091,-0.746 0.105,-0.751 0.122,-0.751C0.139,-0.751 0.153,-0.746 0.165,-0.735C0.177,-0.723 0.183,-0.71 0.183,-0.693C0.183,-0.677 0.177,-0.664 0.165,-0.652C0.153,-0.641 0.139,-0.635 0.122,-0.635Z" style="fill-rule:nonzero;"/>
            </g>
            <g transform="matrix(6,0,0,6,21.9207,34)">
                <path d="M0.298,0.216C0.258,0.216 0.223,0.211 0.194,0.2C0.164,0.19 0.14,0.177 0.12,0.16C0.101,0.143 0.085,0.124 0.074,0.104L0.145,0.059C0.153,0.069 0.163,0.081 0.174,0.093C0.186,0.106 0.201,0.117 0.221,0.126C0.241,0.135 0.266,0.139 0.298,0.139C0.342,0.139 0.378,0.129 0.406,0.108C0.434,0.087 0.448,0.054 0.448,0.009L0.448,-0.1L0.44,-0.1C0.434,-0.09 0.425,-0.077 0.414,-0.063C0.403,-0.049 0.386,-0.036 0.365,-0.025C0.344,-0.014 0.316,-0.009 0.281,-0.009C0.238,-0.009 0.198,-0.019 0.164,-0.04C0.129,-0.06 0.101,-0.091 0.081,-0.13C0.061,-0.17 0.051,-0.218 0.051,-0.275C0.051,-0.332 0.061,-0.381 0.081,-0.422C0.1,-0.464 0.128,-0.496 0.163,-0.519C0.198,-0.541 0.238,-0.553 0.283,-0.553C0.318,-0.553 0.346,-0.547 0.367,-0.535C0.388,-0.524 0.405,-0.511 0.416,-0.496C0.427,-0.481 0.436,-0.468 0.442,-0.458L0.451,-0.458L0.451,-0.546L0.536,-0.546L0.536,0.014C0.536,0.061 0.526,0.099 0.504,0.129C0.483,0.159 0.455,0.181 0.419,0.195C0.383,0.209 0.343,0.216 0.298,0.216ZM0.296,-0.087C0.329,-0.087 0.357,-0.094 0.38,-0.11C0.403,-0.125 0.42,-0.147 0.432,-0.175C0.443,-0.204 0.449,-0.238 0.449,-0.277C0.449,-0.316 0.443,-0.35 0.432,-0.38C0.42,-0.409 0.403,-0.432 0.38,-0.449C0.358,-0.466 0.329,-0.474 0.296,-0.474C0.261,-0.474 0.233,-0.465 0.209,-0.448C0.186,-0.43 0.169,-0.406 0.157,-0.376C0.146,-0.347 0.14,-0.314 0.14,-0.277C0.14,-0.24 0.146,-0.207 0.158,-0.178C0.169,-0.15 0.187,-0.127 0.21,-0.111C0.233,-0.095 0.262,-0.087 0.296,-0.087Z" style="fill-rule:nonzero;"/>
            </g>
            <g transform="matrix(6,0,0,6,25.6004,34)">
                <path d="M0.165,-0.327L0.165,-0L0.077,-0L0.077,-0.546L0.162,-0.546L0.162,-0.414L0.15,-0.414C0.167,-0.464 0.19,-0.5 0.221,-0.521C0.252,-0.542 0.288,-0.553 0.329,-0.553C0.366,-0.553 0.398,-0.545 0.426,-0.53C0.453,-0.515 0.475,-0.492 0.49,-0.462C0.506,-0.431 0.514,-0.393 0.514,-0.347L0.514,-0L0.426,-0L0.426,-0.339C0.426,-0.381 0.415,-0.414 0.393,-0.438C0.371,-0.462 0.341,-0.474 0.303,-0.474C0.277,-0.474 0.253,-0.468 0.232,-0.457C0.212,-0.445 0.195,-0.429 0.183,-0.407C0.171,-0.385 0.165,-0.358 0.165,-0.327Z" style="fill-rule:nonzero;"/>
            </g>
        </g>
        <g transform="matrix(1,0,0,1,65.2531,1.50879)">
            <g transform="matrix(6,0,0,6,9.76543,28)">
                <path d="M0.321,0.013C0.268,0.013 0.223,0.004 0.184,-0.013C0.146,-0.03 0.116,-0.053 0.094,-0.084C0.072,-0.114 0.06,-0.15 0.057,-0.19L0.152,-0.19C0.154,-0.163 0.164,-0.141 0.18,-0.123C0.196,-0.105 0.216,-0.092 0.241,-0.083C0.266,-0.075 0.292,-0.07 0.321,-0.07C0.354,-0.07 0.383,-0.076 0.409,-0.086C0.436,-0.097 0.456,-0.112 0.472,-0.132C0.487,-0.151 0.495,-0.174 0.495,-0.2C0.495,-0.223 0.488,-0.242 0.475,-0.257C0.462,-0.271 0.444,-0.284 0.422,-0.293C0.401,-0.302 0.377,-0.311 0.351,-0.318L0.263,-0.343C0.204,-0.359 0.159,-0.383 0.126,-0.414C0.093,-0.445 0.077,-0.485 0.077,-0.533C0.077,-0.574 0.088,-0.61 0.11,-0.64C0.132,-0.671 0.162,-0.695 0.2,-0.712C0.238,-0.729 0.28,-0.737 0.327,-0.737C0.375,-0.737 0.417,-0.729 0.454,-0.712C0.491,-0.695 0.52,-0.672 0.541,-0.643C0.563,-0.614 0.574,-0.581 0.575,-0.544L0.484,-0.544C0.48,-0.579 0.463,-0.607 0.434,-0.626C0.404,-0.646 0.368,-0.655 0.324,-0.655C0.293,-0.655 0.266,-0.65 0.242,-0.64C0.218,-0.63 0.2,-0.616 0.187,-0.598C0.174,-0.58 0.167,-0.56 0.167,-0.537C0.167,-0.512 0.175,-0.491 0.191,-0.476C0.207,-0.46 0.226,-0.448 0.247,-0.44C0.269,-0.431 0.289,-0.424 0.306,-0.419L0.379,-0.399C0.398,-0.394 0.42,-0.387 0.444,-0.378C0.467,-0.369 0.49,-0.357 0.511,-0.342C0.533,-0.326 0.55,-0.307 0.564,-0.284C0.578,-0.261 0.585,-0.232 0.585,-0.198C0.585,-0.159 0.575,-0.123 0.554,-0.091C0.533,-0.059 0.503,-0.034 0.464,-0.015C0.424,0.003 0.377,0.013 0.321,0.013Z" style="fill-rule:nonzero;"/>
            </g>
            <g transform="matrix(6,0,0,6,13.615,28)">
                <path d="M0.262,0.007C0.225,0.007 0.193,-0.001 0.165,-0.016C0.137,-0.031 0.116,-0.054 0.1,-0.084C0.085,-0.115 0.077,-0.153 0.077,-0.199L0.077,-0.546L0.165,-0.546L0.165,-0.207C0.165,-0.165 0.176,-0.132 0.198,-0.108C0.22,-0.084 0.25,-0.072 0.289,-0.072C0.315,-0.072 0.338,-0.078 0.359,-0.089C0.379,-0.101 0.396,-0.117 0.408,-0.139C0.42,-0.161 0.426,-0.188 0.426,-0.219L0.426,-0.546L0.514,-0.546L0.514,-0L0.429,-0L0.429,-0.132L0.441,-0.132C0.424,-0.081 0.4,-0.045 0.369,-0.024C0.338,-0.004 0.302,0.007 0.262,0.007Z" style="fill-rule:nonzero;"/>
            </g>
            <g transform="matrix(6,0,0,6,17.1629,28)">
                <path d="M0.331,0.012C0.296,0.012 0.268,0.006 0.247,-0.006C0.226,-0.018 0.21,-0.031 0.198,-0.047C0.187,-0.062 0.178,-0.074 0.172,-0.084L0.162,-0.084L0.162,-0L0.077,-0L0.077,-0.728L0.165,-0.728L0.165,-0.458L0.172,-0.458C0.178,-0.468 0.187,-0.481 0.198,-0.495C0.209,-0.51 0.225,-0.523 0.246,-0.535C0.266,-0.547 0.295,-0.553 0.33,-0.553C0.376,-0.553 0.416,-0.541 0.45,-0.519C0.485,-0.496 0.512,-0.463 0.532,-0.421C0.552,-0.379 0.562,-0.329 0.562,-0.271C0.562,-0.214 0.552,-0.163 0.532,-0.121C0.513,-0.079 0.486,-0.046 0.451,-0.023C0.416,0 0.376,0.012 0.331,0.012ZM0.317,-0.067C0.352,-0.067 0.38,-0.076 0.403,-0.094C0.426,-0.113 0.443,-0.138 0.455,-0.169C0.466,-0.2 0.472,-0.234 0.472,-0.272C0.472,-0.31 0.466,-0.344 0.455,-0.375C0.444,-0.405 0.427,-0.429 0.404,-0.447C0.381,-0.465 0.352,-0.474 0.317,-0.474C0.284,-0.474 0.256,-0.466 0.233,-0.449C0.21,-0.432 0.193,-0.408 0.181,-0.378C0.17,-0.348 0.164,-0.313 0.164,-0.272C0.164,-0.232 0.17,-0.196 0.182,-0.166C0.193,-0.135 0.211,-0.11 0.234,-0.093C0.257,-0.076 0.285,-0.067 0.317,-0.067Z" style="fill-rule:nonzero;"/>
            </g>
            <g transform="matrix(6,0,0,6,20.8367,28)">
                <path d="M0.077,-0L0.077,-0.546L0.163,-0.546L0.163,-0.424L0.156,-0.424C0.164,-0.453 0.176,-0.478 0.192,-0.497C0.208,-0.517 0.227,-0.531 0.248,-0.541C0.27,-0.551 0.292,-0.556 0.316,-0.556C0.356,-0.556 0.388,-0.543 0.412,-0.519C0.437,-0.495 0.453,-0.463 0.46,-0.423L0.448,-0.423C0.455,-0.45 0.467,-0.474 0.484,-0.494C0.501,-0.514 0.522,-0.529 0.547,-0.54C0.571,-0.55 0.598,-0.556 0.627,-0.556C0.659,-0.556 0.687,-0.549 0.713,-0.535C0.739,-0.521 0.76,-0.501 0.776,-0.473C0.791,-0.445 0.799,-0.41 0.799,-0.368L0.799,-0L0.711,-0L0.711,-0.366C0.711,-0.405 0.7,-0.433 0.678,-0.45C0.656,-0.467 0.63,-0.476 0.601,-0.476C0.576,-0.476 0.555,-0.47 0.537,-0.46C0.52,-0.45 0.506,-0.436 0.496,-0.418C0.487,-0.4 0.482,-0.38 0.482,-0.356L0.482,-0L0.394,-0L0.394,-0.375C0.394,-0.405 0.384,-0.429 0.364,-0.448C0.344,-0.466 0.318,-0.476 0.287,-0.476C0.266,-0.476 0.246,-0.471 0.227,-0.461C0.209,-0.451 0.194,-0.436 0.182,-0.417C0.171,-0.397 0.165,-0.373 0.165,-0.344L0.165,-0L0.077,-0Z" style="fill-rule:nonzero;"/>
            </g>
            <g transform="matrix(6,0,0,6,26.0926,28)">
                <path d="M0.077,-0L0.077,-0.546L0.165,-0.546L0.165,-0L0.077,-0ZM0.122,-0.635C0.105,-0.635 0.091,-0.641 0.079,-0.652C0.067,-0.664 0.061,-0.677 0.061,-0.693C0.061,-0.71 0.067,-0.723 0.079,-0.735C0.091,-0.746 0.105,-0.751 0.122,-0.751C0.139,-0.751 0.153,-0.746 0.165,-0.735C0.177,-0.723 0.183,-0.71 0.183,-0.693C0.183,-0.677 0.177,-0.664 0.165,-0.652C0.153,-0.641 0.139,-0.635 0.122,-0.635Z" style="fill-rule:nonzero;"/>
            </g>
            <g transform="matrix(6,0,0,6,27.5457,28)">
                <path d="M0.292,-0.546L0.292,-0.471L0.01,-0.471L0.01,-0.546L0.292,-0.546ZM0.092,-0.676L0.18,-0.676L0.18,-0.142C0.18,-0.117 0.185,-0.099 0.195,-0.088C0.205,-0.077 0.221,-0.071 0.244,-0.071C0.25,-0.071 0.257,-0.072 0.265,-0.073C0.274,-0.075 0.282,-0.076 0.289,-0.077L0.307,-0.003C0.298,0 0.288,0.003 0.276,0.004C0.265,0.006 0.253,0.007 0.242,0.007C0.194,0.007 0.158,-0.006 0.131,-0.031C0.105,-0.055 0.092,-0.09 0.092,-0.135L0.092,-0.676Z" style="fill-rule:nonzero;"/>
            </g>
            <g transform="matrix(6,0,0,6,10.1287,34)">
                <path d="M0.282,0.012C0.236,0.012 0.196,0 0.162,-0.023C0.127,-0.046 0.1,-0.079 0.08,-0.121C0.061,-0.163 0.051,-0.214 0.051,-0.271C0.051,-0.329 0.061,-0.379 0.08,-0.421C0.1,-0.463 0.127,-0.496 0.162,-0.519C0.197,-0.541 0.237,-0.553 0.282,-0.553C0.318,-0.553 0.346,-0.547 0.367,-0.535C0.388,-0.523 0.404,-0.51 0.415,-0.495C0.426,-0.481 0.435,-0.468 0.44,-0.458L0.447,-0.458L0.447,-0.728L0.535,-0.728L0.535,-0L0.45,-0L0.45,-0.084L0.44,-0.084C0.435,-0.074 0.426,-0.062 0.414,-0.047C0.403,-0.031 0.386,-0.018 0.365,-0.006C0.344,0.006 0.317,0.012 0.282,0.012ZM0.295,-0.067C0.328,-0.067 0.356,-0.076 0.379,-0.093C0.402,-0.11 0.419,-0.135 0.431,-0.166C0.442,-0.196 0.448,-0.232 0.448,-0.272C0.448,-0.313 0.442,-0.348 0.431,-0.378C0.419,-0.408 0.402,-0.432 0.379,-0.449C0.357,-0.466 0.328,-0.474 0.295,-0.474C0.26,-0.474 0.232,-0.465 0.209,-0.447C0.186,-0.429 0.169,-0.405 0.157,-0.375C0.146,-0.344 0.14,-0.31 0.14,-0.272C0.14,-0.234 0.146,-0.2 0.157,-0.169C0.169,-0.138 0.186,-0.113 0.209,-0.094C0.233,-0.076 0.261,-0.067 0.295,-0.067Z" style="fill-rule:nonzero;"/>
            </g>
            <g transform="matrix(6,0,0,6,13.8025,34)">
                <path d="M0.307,0.012C0.254,0.012 0.208,0 0.17,-0.023C0.132,-0.047 0.102,-0.08 0.082,-0.122C0.061,-0.164 0.051,-0.213 0.051,-0.269C0.051,-0.325 0.061,-0.374 0.081,-0.417C0.101,-0.459 0.13,-0.493 0.167,-0.517C0.204,-0.541 0.247,-0.553 0.296,-0.553C0.325,-0.553 0.354,-0.548 0.382,-0.538C0.41,-0.529 0.436,-0.513 0.459,-0.492C0.482,-0.471 0.5,-0.443 0.514,-0.408C0.527,-0.373 0.534,-0.33 0.534,-0.28L0.534,-0.243L0.11,-0.243L0.11,-0.317L0.487,-0.317L0.446,-0.29C0.446,-0.326 0.44,-0.358 0.429,-0.385C0.418,-0.413 0.401,-0.435 0.379,-0.451C0.357,-0.467 0.329,-0.475 0.296,-0.475C0.264,-0.475 0.235,-0.467 0.212,-0.45C0.188,-0.434 0.171,-0.413 0.158,-0.387C0.146,-0.362 0.14,-0.334 0.14,-0.304L0.14,-0.255C0.14,-0.215 0.147,-0.18 0.161,-0.152C0.175,-0.124 0.194,-0.103 0.219,-0.088C0.245,-0.074 0.274,-0.066 0.307,-0.066C0.329,-0.066 0.348,-0.069 0.366,-0.076C0.383,-0.082 0.398,-0.091 0.411,-0.104C0.424,-0.116 0.434,-0.132 0.44,-0.15L0.525,-0.127C0.517,-0.1 0.503,-0.076 0.482,-0.055C0.462,-0.034 0.437,-0.018 0.407,-0.006C0.378,0.006 0.344,0.012 0.307,0.012Z" style="fill-rule:nonzero;"/>
            </g>
            <g transform="matrix(6,0,0,6,17.3006,34)">
                <path d="M0.263,0.012C0.225,0.012 0.192,0.006 0.163,-0.005C0.134,-0.016 0.11,-0.032 0.091,-0.053C0.072,-0.075 0.059,-0.101 0.053,-0.132L0.136,-0.152C0.144,-0.122 0.159,-0.1 0.18,-0.086C0.202,-0.072 0.229,-0.065 0.262,-0.065C0.3,-0.065 0.33,-0.074 0.353,-0.09C0.375,-0.106 0.387,-0.125 0.387,-0.148C0.387,-0.167 0.38,-0.183 0.367,-0.195C0.354,-0.208 0.334,-0.217 0.307,-0.223L0.216,-0.245C0.166,-0.256 0.13,-0.274 0.105,-0.299C0.081,-0.324 0.069,-0.355 0.069,-0.394C0.069,-0.425 0.078,-0.452 0.096,-0.476C0.113,-0.5 0.137,-0.519 0.168,-0.532C0.198,-0.546 0.233,-0.553 0.271,-0.553C0.309,-0.553 0.341,-0.547 0.367,-0.536C0.393,-0.525 0.414,-0.509 0.431,-0.49C0.447,-0.47 0.46,-0.447 0.468,-0.421L0.388,-0.401C0.381,-0.42 0.368,-0.438 0.351,-0.454C0.333,-0.47 0.307,-0.478 0.272,-0.478C0.239,-0.478 0.212,-0.471 0.191,-0.456C0.169,-0.441 0.158,-0.422 0.158,-0.399C0.158,-0.379 0.166,-0.363 0.18,-0.35C0.195,-0.338 0.218,-0.328 0.25,-0.321L0.333,-0.301C0.382,-0.29 0.419,-0.271 0.442,-0.247C0.466,-0.222 0.478,-0.191 0.478,-0.154C0.478,-0.122 0.469,-0.094 0.451,-0.069C0.433,-0.044 0.408,-0.024 0.375,-0.01C0.343,0.005 0.305,0.012 0.263,0.012Z" style="fill-rule:nonzero;"/>
            </g>
            <g transform="matrix(6,0,0,6,20.4676,34)">
                <path d="M0.077,-0L0.077,-0.546L0.165,-0.546L0.165,-0L0.077,-0ZM0.122,-0.635C0.105,-0.635 0.091,-0.641 0.079,-0.652C0.067,-0.664 0.061,-0.677 0.061,-0.693C0.061,-0.71 0.067,-0.723 0.079,-0.735C0.091,-0.746 0.105,-0.751 0.122,-0.751C0.139,-0.751 0.153,-0.746 0.165,-0.735C0.177,-0.723 0.183,-0.71 0.183,-0.693C0.183,-0.677 0.177,-0.664 0.165,-0.652C0.153,-0.641 0.139,-0.635 0.122,-0.635Z" style="fill-rule:nonzero;"/>
            </g>
            <g transform="matrix(6,0,0,6,21.9207,34)">
                <path d="M0.298,0.216C0.258,0.216 0.223,0.211 0.194,0.2C0.164,0.19 0.14,0.177 0.12,0.16C0.101,0.143 0.085,0.124 0.074,0.104L0.145,0.059C0.153,0.069 0.163,0.081 0.174,0.093C0.186,0.106 0.201,0.117 0.221,0.126C0.241,0.135 0.266,0.139 0.298,0.139C0.342,0.139 0.378,0.129 0.406,0.108C0.434,0.087 0.448,0.054 0.448,0.009L0.448,-0.1L0.44,-0.1C0.434,-0.09 0.425,-0.077 0.414,-0.063C0.403,-0.049 0.386,-0.036 0.365,-0.025C0.344,-0.014 0.316,-0.009 0.281,-0.009C0.238,-0.009 0.198,-0.019 0.164,-0.04C0.129,-0.06 0.101,-0.091 0.081,-0.13C0.061,-0.17 0.051,-0.218 0.051,-0.275C0.051,-0.332 0.061,-0.381 0.081,-0.422C0.1,-0.464 0.128,-0.496 0.163,-0.519C0.198,-0.541 0.238,-0.553 0.283,-0.553C0.318,-0.553 0.346,-0.547 0.367,-0.535C0.388,-0.524 0.405,-0.511 0.416,-0.496C0.427,-0.481 0.436,-0.468 0.442,-0.458L0.451,-0.458L0.451,-0.546L0.536,-0.546L0.536,0.014C0.536,0.061 0.526,0.099 0.504,0.129C0.483,0.159 0.455,0.181 0.419,0.195C0.383,0.209 0.343,0.216 0.298,0.216ZM0.296,-0.087C0.329,-0.087 0.357,-0.094 0.38,-0.11C0.403,-0.125 0.42,-0.147 0.432,-0.175C0.443,-0.204 0.449,-0.238 0.449,-0.277C0.449,-0.316 0.443,-0.35 0.432,-0.38C0.42,-0.409 0.403,-0.432 0.38,-0.449C0.358,-0.466 0.329,-0.474 0.296,-0.474C0.261,-0.474 0.233,-0.465 0.209,-0.448C0.186,-0.43 0.169,-0.406 0.157,-0.376C0.146,-0.347 0.14,-0.314 0.14,-0.277C0.14,-0.24 0.146,-0.207 0.158,-0.178C0.169,-0.15 0.187,-0.127 0.21,-0.111C0.233,-0.095 0.262,-0.087 0.296,-0.087Z" style="fill-rule:nonzero;"/>
            </g>
            <g transform="matrix(6,0,0,6,25.6004,34)">
                <path d="M0.165,-0.327L0.165,-0L0.077,-0L0.077,-0.546L0.162,-0.546L0.162,-0.414L0.15,-0.414C0.167,-0.464 0.19,-0.5 0.221,-0.521C0.252,-0.542 0.288,-0.553 0.329,-0.553C0.366,-0.553 0.398,-0.545 0.426,-0.53C0.453,-0.515 0.475,-0.492 0.49,-0.462C0.506,-0.431 0.514,-0.393 0.514,-0.347L0.514,-0L0.426,-0L0.426,-0.339C0.426,-0.381 0.415,-0.414 0.393,-0.438C0.371,-0.462 0.341,-0.474 0.303,-0.474C0.277,-0.474 0.253,-0.468 0.232,-0.457C0.212,-0.445 0.195,-0.429 0.183,-0.407C0.171,-0.385 0.165,-0.358 0.165,-0.327Z" style="fill-rule:nonzero;"/>
            </g>
        </g>
        <g transform="matrix(1,0,0,1,130.246,1.50879)">
            <g transform="matrix(6,0,0,6,-1.57539,28)">
                <path d="M0.088,-0L0.088,-0.728L0.528,-0.728L0.528,-0.646L0.181,-0.646L0.181,-0.396L0.495,-0.396L0.495,-0.314L0.181,-0.314L0.181,-0L0.088,-0Z" style="fill-rule:nonzero;"/>
            </g>
            <g transform="matrix(6,0,0,6,1.79082,28)">
                <path d="M0.077,-0L0.077,-0.546L0.162,-0.546L0.162,-0.462L0.168,-0.462C0.178,-0.49 0.196,-0.512 0.222,-0.529C0.248,-0.545 0.277,-0.554 0.31,-0.554C0.316,-0.554 0.324,-0.554 0.333,-0.553C0.342,-0.553 0.349,-0.553 0.354,-0.552L0.354,-0.464C0.351,-0.465 0.345,-0.465 0.334,-0.467C0.324,-0.468 0.313,-0.469 0.301,-0.469C0.275,-0.469 0.252,-0.463 0.231,-0.452C0.211,-0.441 0.194,-0.427 0.183,-0.407C0.171,-0.388 0.165,-0.367 0.165,-0.342L0.165,-0L0.077,-0Z" style="fill-rule:nonzero;"/>
            </g>
            <g transform="matrix(6,0,0,6,3.95,28)">
                <path d="M0.307,0.012C0.254,0.012 0.208,0 0.17,-0.023C0.132,-0.047 0.102,-0.08 0.082,-0.122C0.061,-0.164 0.051,-0.213 0.051,-0.269C0.051,-0.325 0.061,-0.374 0.081,-0.417C0.101,-0.459 0.13,-0.493 0.167,-0.517C0.204,-0.541 0.247,-0.553 0.296,-0.553C0.325,-0.553 0.354,-0.548 0.382,-0.538C0.41,-0.529 0.436,-0.513 0.459,-0.492C0.482,-0.471 0.5,-0.443 0.514,-0.408C0.527,-0.373 0.534,-0.33 0.534,-0.28L0.534,-0.243L0.11,-0.243L0.11,-0.317L0.487,-0.317L0.446,-0.29C0.446,-0.326 0.44,-0.358 0.429,-0.385C0.418,-0.413 0.401,-0.435 0.379,-0.451C0.357,-0.467 0.329,-0.475 0.296,-0.475C0.264,-0.475 0.235,-0.467 0.212,-0.45C0.188,-0.434 0.171,-0.413 0.158,-0.387C0.146,-0.362 0.14,-0.334 0.14,-0.304L0.14,-0.255C0.14,-0.215 0.147,-0.18 0.161,-0.152C0.175,-0.124 0.194,-0.103 0.219,-0.088C0.245,-0.074 0.274,-0.066 0.307,-0.066C0.329,-0.066 0.348,-0.069 0.366,-0.076C0.383,-0.082 0.398,-0.091 0.411,-0.104C0.424,-0.116 0.434,-0.132 0.44,-0.15L0.525,-0.127C0.517,-0.1 0.503,-0.076 0.482,-0.055C0.462,-0.034 0.437,-0.018 0.407,-0.006C0.378,0.006 0.344,0.012 0.307,0.012Z" style="fill-rule:nonzero;"/>
            </g>
            <g transform="matrix(6,0,0,6,7.44805,28)">
                <path d="M0.307,0.012C0.254,0.012 0.208,0 0.17,-0.023C0.132,-0.047 0.102,-0.08 0.082,-0.122C0.061,-0.164 0.051,-0.213 0.051,-0.269C0.051,-0.325 0.061,-0.374 0.081,-0.417C0.101,-0.459 0.13,-0.493 0.167,-0.517C0.204,-0.541 0.247,-0.553 0.296,-0.553C0.325,-0.553 0.354,-0.548 0.382,-0.538C0.41,-0.529 0.436,-0.513 0.459,-0.492C0.482,-0.471 0.5,-0.443 0.514,-0.408C0.527,-0.373 0.534,-0.33 0.534,-0.28L0.534,-0.243L0.11,-0.243L0.11,-0.317L0.487,-0.317L0.446,-0.29C0.446,-0.326 0.44,-0.358 0.429,-0.385C0.418,-0.413 0.401,-0.435 0.379,-0.451C0.357,-0.467 0.329,-0.475 0.296,-0.475C0.264,-0.475 0.235,-0.467 0.212,-0.45C0.188,-0.434 0.171,-0.413 0.158,-0.387C0.146,-0.362 0.14,-0.334 0.14,-0.304L0.14,-0.255C0.14,-0.215 0.147,-0.18 0.161,-0.152C0.175,-0.124 0.194,-0.103 0.219,-0.088C0.245,-0.074 0.274,-0.066 0.307,-0.066C0.329,-0.066 0.348,-0.069 0.366,-0.076C0.383,-0.082 0.398,-0.091 0.411,-0.104C0.424,-0.116 0.434,-0.132 0.44,-0.15L0.525,-0.127C0.517,-0.1 0.503,-0.076 0.482,-0.055C0.462,-0.034 0.437,-0.018 0.407,-0.006C0.378,0.006 0.344,0.012 0.307,0.012Z" style="fill-rule:nonzero;"/>
            </g>
            <g transform="matrix(6,0,0,6,12.6336,28)">
                <path d="M0.292,-0.546L0.292,-0.471L0.01,-0.471L0.01,-0.546L0.292,-0.546ZM0.092,-0.676L0.18,-0.676L0.18,-0.142C0.18,-0.117 0.185,-0.099 0.195,-0.088C0.205,-0.077 0.221,-0.071 0.244,-0.071C0.25,-0.071 0.257,-0.072 0.265,-0.073C0.274,-0.075 0.282,-0.076 0.289,-0.077L0.307,-0.003C0.298,0 0.288,0.003 0.276,0.004C0.265,0.006 0.253,0.007 0.242,0.007C0.194,0.007 0.158,-0.006 0.131,-0.031C0.105,-0.055 0.092,-0.09 0.092,-0.135L0.092,-0.676Z" style="fill-rule:nonzero;"/>
            </g>
            <g transform="matrix(6,0,0,6,14.5379,28)">
                <path d="M0.307,0.012C0.254,0.012 0.208,0 0.17,-0.023C0.132,-0.047 0.102,-0.08 0.082,-0.122C0.061,-0.164 0.051,-0.213 0.051,-0.269C0.051,-0.325 0.061,-0.374 0.081,-0.417C0.101,-0.459 0.13,-0.493 0.167,-0.517C0.204,-0.541 0.247,-0.553 0.296,-0.553C0.325,-0.553 0.354,-0.548 0.382,-0.538C0.41,-0.529 0.436,-0.513 0.459,-0.492C0.482,-0.471 0.5,-0.443 0.514,-0.408C0.527,-0.373 0.534,-0.33 0.534,-0.28L0.534,-0.243L0.11,-0.243L0.11,-0.317L0.487,-0.317L0.446,-0.29C0.446,-0.326 0.44,-0.358 0.429,-0.385C0.418,-0.413 0.401,-0.435 0.379,-0.451C0.357,-0.467 0.329,-0.475 0.296,-0.475C0.264,-0.475 0.235,-0.467 0.212,-0.45C0.188,-0.434 0.171,-0.413 0.158,-0.387C0.146,-0.362 0.14,-0.334 0.14,-0.304L0.14,-0.255C0.14,-0.215 0.147,-0.18 0.161,-0.152C0.175,-0.124 0.194,-0.103 0.219,-0.088C0.245,-0.074 0.274,-0.066 0.307,-0.066C0.329,-0.066 0.348,-0.069 0.366,-0.076C0.383,-0.082 0.398,-0.091 0.411,-0.104C0.424,-0.116 0.434,-0.132 0.44,-0.15L0.525,-0.127C0.517,-0.1 0.503,-0.076 0.482,-0.055C0.462,-0.034 0.437,-0.018 0.407,-0.006C0.378,0.006 0.344,0.012 0.307,0.012Z" style="fill-rule:nonzero;"/>
            </g>
            <g transform="matrix(6,0,0,6,18.0359,28)">
                <rect x="0.077" y="-0.728" width="0.088" height="0.728" style="fill-rule:nonzero;"/>
            </g>
            <g transform="matrix(6,0,0,6,19.4891,28)">
                <path d="M0.307,0.012C0.254,0.012 0.208,0 0.17,-0.023C0.132,-0.047 0.102,-0.08 0.082,-0.122C0.061,-0.164 0.051,-0.213 0.051,-0.269C0.051,-0.325 0.061,-0.374 0.081,-0.417C0.101,-0.459 0.13,-0.493 0.167,-0.517C0.204,-0.541 0.247,-0.553 0.296,-0.553C0.325,-0.553 0.354,-0.548 0.382,-0.538C0.41,-0.529 0.436,-0.513 0.459,-0.492C0.482,-0.471 0.5,-0.443 0.514,-0.408C0.527,-0.373 0.534,-0.33 0.534,-0.28L0.534,-0.243L0.11,-0.243L0.11,-0.317L0.487,-0.317L0.446,-0.29C0.446,-0.326 0.44,-0.358 0.429,-0.385C0.418,-0.413 0.401,-0.435 0.379,-0.451C0.357,-0.467 0.329,-0.475 0.296,-0.475C0.264,-0.475 0.235,-0.467 0.212,-0.45C0.188,-0.434 0.171,-0.413 0.158,-0.387C0.146,-0.362 0.14,-0.334 0.14,-0.304L0.14,-0.255C0.14,-0.215 0.147,-0.18 0.161,-0.152C0.175,-0.124 0.194,-0.103 0.219,-0.088C0.245,-0.074 0.274,-0.066 0.307,-0.066C0.329,-0.066 0.348,-0.069 0.366,-0.076C0.383,-0.082 0.398,-0.091 0.411,-0.104C0.424,-0.116 0.434,-0.132 0.44,-0.15L0.525,-0.127C0.517,-0.1 0.503,-0.076 0.482,-0.055C0.462,-0.034 0.437,-0.018 0.407,-0.006C0.378,0.006 0.344,0.012 0.307,0.012Z" style="fill-rule:nonzero;"/>
            </g>
            <g transform="matrix(6,0,0,6,22.9871,28)">
                <path d="M0.077,0.204L0.077,-0.546L0.162,-0.546L0.162,-0.458L0.172,-0.458C0.178,-0.468 0.187,-0.481 0.198,-0.495C0.209,-0.51 0.225,-0.523 0.246,-0.535C0.266,-0.547 0.295,-0.553 0.33,-0.553C0.376,-0.553 0.416,-0.541 0.45,-0.519C0.485,-0.496 0.512,-0.463 0.532,-0.421C0.552,-0.379 0.562,-0.329 0.562,-0.271C0.562,-0.214 0.552,-0.163 0.532,-0.121C0.513,-0.079 0.486,-0.046 0.451,-0.023C0.416,0 0.376,0.012 0.331,0.012C0.296,0.012 0.268,0.006 0.247,-0.006C0.226,-0.018 0.21,-0.031 0.198,-0.047C0.187,-0.062 0.178,-0.074 0.172,-0.084L0.165,-0.084L0.165,0.204L0.077,0.204ZM0.317,-0.067C0.352,-0.067 0.38,-0.076 0.403,-0.094C0.426,-0.113 0.443,-0.138 0.455,-0.169C0.466,-0.2 0.472,-0.234 0.472,-0.272C0.472,-0.31 0.466,-0.344 0.455,-0.375C0.444,-0.405 0.427,-0.429 0.404,-0.447C0.381,-0.465 0.352,-0.474 0.317,-0.474C0.284,-0.474 0.256,-0.466 0.233,-0.449C0.21,-0.432 0.193,-0.408 0.181,-0.378C0.17,-0.348 0.164,-0.313 0.164,-0.272C0.164,-0.232 0.17,-0.196 0.182,-0.166C0.193,-0.135 0.211,-0.11 0.234,-0.093C0.257,-0.076 0.285,-0.067 0.317,-0.067Z" style="fill-rule:nonzero;"/>
            </g>
            <g transform="matrix(6,0,0,6,26.6609,28)">
                <path d="M0.165,-0.327L0.165,-0L0.077,-0L0.077,-0.728L0.165,-0.728L0.165,-0.414L0.15,-0.414C0.167,-0.464 0.19,-0.5 0.221,-0.521C0.252,-0.542 0.288,-0.553 0.329,-0.553C0.366,-0.553 0.398,-0.545 0.426,-0.53C0.454,-0.515 0.476,-0.492 0.491,-0.462C0.506,-0.431 0.514,-0.393 0.514,-0.347L0.514,-0L0.426,-0L0.426,-0.339C0.426,-0.381 0.415,-0.414 0.393,-0.438C0.371,-0.462 0.341,-0.474 0.303,-0.474C0.277,-0.474 0.253,-0.468 0.232,-0.457C0.212,-0.445 0.195,-0.429 0.183,-0.407C0.171,-0.385 0.165,-0.358 0.165,-0.327Z" style="fill-rule:nonzero;"/>
            </g>
            <g transform="matrix(6,0,0,6,30.2088,28)">
                <path d="M0.299,0.012C0.25,0.012 0.206,0 0.169,-0.023C0.132,-0.047 0.103,-0.08 0.082,-0.122C0.061,-0.164 0.051,-0.214 0.051,-0.27C0.051,-0.326 0.061,-0.376 0.082,-0.419C0.103,-0.461 0.132,-0.494 0.169,-0.518C0.206,-0.541 0.25,-0.553 0.299,-0.553C0.349,-0.553 0.393,-0.541 0.43,-0.518C0.468,-0.494 0.497,-0.461 0.518,-0.419C0.538,-0.376 0.549,-0.326 0.549,-0.27C0.549,-0.214 0.538,-0.164 0.518,-0.122C0.497,-0.08 0.468,-0.047 0.43,-0.023C0.393,0 0.349,0.012 0.299,0.012ZM0.299,-0.067C0.336,-0.067 0.366,-0.076 0.39,-0.095C0.414,-0.114 0.431,-0.139 0.443,-0.17C0.454,-0.2 0.46,-0.234 0.46,-0.27C0.46,-0.306 0.454,-0.339 0.443,-0.37C0.431,-0.401 0.414,-0.427 0.39,-0.446C0.366,-0.465 0.336,-0.474 0.299,-0.474C0.263,-0.474 0.233,-0.465 0.209,-0.446C0.186,-0.427 0.169,-0.402 0.157,-0.371C0.146,-0.34 0.14,-0.306 0.14,-0.27C0.14,-0.234 0.146,-0.2 0.157,-0.17C0.169,-0.139 0.186,-0.114 0.209,-0.095C0.233,-0.076 0.263,-0.067 0.299,-0.067Z" style="fill-rule:nonzero;"/>
            </g>
            <g transform="matrix(6,0,0,6,33.8064,28)">
                <path d="M0.165,-0.327L0.165,-0L0.077,-0L0.077,-0.546L0.162,-0.546L0.162,-0.414L0.15,-0.414C0.167,-0.464 0.19,-0.5 0.221,-0.521C0.252,-0.542 0.288,-0.553 0.329,-0.553C0.366,-0.553 0.398,-0.545 0.426,-0.53C0.453,-0.515 0.475,-0.492 0.49,-0.462C0.506,-0.431 0.514,-0.393 0.514,-0.347L0.514,-0L0.426,-0L0.426,-0.339C0.426,-0.381 0.415,-0.414 0.393,-0.438C0.371,-0.462 0.341,-0.474 0.303,-0.474C0.277,-0.474 0.253,-0.468 0.232,-0.457C0.212,-0.445 0.195,-0.429 0.183,-0.407C0.171,-0.385 0.165,-0.358 0.165,-0.327Z" style="fill-rule:nonzero;"/>
            </g>
            <g transform="matrix(6,0,0,6,37.3514,28)">
                <path d="M0.307,0.012C0.254,0.012 0.208,0 0.17,-0.023C0.132,-0.047 0.102,-0.08 0.082,-0.122C0.061,-0.164 0.051,-0.213 0.051,-0.269C0.051,-0.325 0.061,-0.374 0.081,-0.417C0.101,-0.459 0.13,-0.493 0.167,-0.517C0.204,-0.541 0.247,-0.553 0.296,-0.553C0.325,-0.553 0.354,-0.548 0.382,-0.538C0.41,-0.529 0.436,-0.513 0.459,-0.492C0.482,-0.471 0.5,-0.443 0.514,-0.408C0.527,-0.373 0.534,-0.33 0.534,-0.28L0.534,-0.243L0.11,-0.243L0.11,-0.317L0.487,-0.317L0.446,-0.29C0.446,-0.326 0.44,-0.358 0.429,-0.385C0.418,-0.413 0.401,-0.435 0.379,-0.451C0.357,-0.467 0.329,-0.475 0.296,-0.475C0.264,-0.475 0.235,-0.467 0.212,-0.45C0.188,-0.434 0.171,-0.413 0.158,-0.387C0.146,-0.362 0.14,-0.334 0.14,-0.304L0.14,-0.255C0.14,-0.215 0.147,-0.18 0.161,-0.152C0.175,-0.124 0.194,-0.103 0.219,-0.088C0.245,-0.074 0.274,-0.066 0.307,-0.066C0.329,-0.066 0.348,-0.069 0.366,-0.076C0.383,-0.082 0.398,-0.091 0.411,-0.104C0.424,-0.116 0.434,-0.132 0.44,-0.15L0.525,-0.127C0.517,-0.1 0.503,-0.076 0.482,-0.055C0.462,-0.034 0.437,-0.018 0.407,-0.006C0.378,0.006 0.344,0.012 0.307,0.012Z" style="fill-rule:nonzero;"/>
            </g>
            <g transform="matrix(6,0,0,6,2.26397,34)">
                <path d="M0.299,0.012C0.25,0.012 0.206,0 0.169,-0.023C0.132,-0.047 0.103,-0.08 0.082,-0.122C0.061,-0.164 0.051,-0.214 0.051,-0.27C0.051,-0.326 0.061,-0.376 0.082,-0.419C0.103,-0.461 0.132,-0.494 0.169,-0.518C0.206,-0.541 0.25,-0.553 0.299,-0.553C0.326,-0.553 0.351,-0.549 0.374,-0.542C0.397,-0.536 0.419,-0.526 0.438,-0.513C0.458,-0.5 0.474,-0.484 0.488,-0.466C0.502,-0.447 0.513,-0.426 0.521,-0.402L0.436,-0.378C0.432,-0.392 0.426,-0.405 0.418,-0.417C0.41,-0.428 0.4,-0.438 0.388,-0.447C0.377,-0.456 0.364,-0.462 0.349,-0.467C0.334,-0.472 0.317,-0.474 0.299,-0.474C0.263,-0.474 0.233,-0.465 0.209,-0.446C0.186,-0.427 0.169,-0.402 0.157,-0.371C0.146,-0.34 0.14,-0.306 0.14,-0.27C0.14,-0.234 0.146,-0.2 0.157,-0.17C0.169,-0.139 0.186,-0.114 0.209,-0.095C0.233,-0.076 0.263,-0.067 0.299,-0.067C0.318,-0.067 0.334,-0.069 0.35,-0.074C0.365,-0.079 0.378,-0.086 0.39,-0.095C0.402,-0.104 0.412,-0.115 0.42,-0.127C0.429,-0.139 0.435,-0.153 0.438,-0.167L0.522,-0.144C0.515,-0.119 0.505,-0.097 0.49,-0.078C0.476,-0.059 0.459,-0.043 0.44,-0.03C0.42,-0.016 0.399,-0.006 0.375,0.001C0.351,0.008 0.326,0.012 0.299,0.012Z" style="fill-rule:nonzero;"/>
            </g>
            <g transform="matrix(6,0,0,6,5.6917,34)">
                <path d="M0.299,0.012C0.25,0.012 0.206,0 0.169,-0.023C0.132,-0.047 0.103,-0.08 0.082,-0.122C0.061,-0.164 0.051,-0.214 0.051,-0.27C0.051,-0.326 0.061,-0.376 0.082,-0.419C0.103,-0.461 0.132,-0.494 0.169,-0.518C0.206,-0.541 0.25,-0.553 0.299,-0.553C0.349,-0.553 0.393,-0.541 0.43,-0.518C0.468,-0.494 0.497,-0.461 0.518,-0.419C0.538,-0.376 0.549,-0.326 0.549,-0.27C0.549,-0.214 0.538,-0.164 0.518,-0.122C0.497,-0.08 0.468,-0.047 0.43,-0.023C0.393,0 0.349,0.012 0.299,0.012ZM0.299,-0.067C0.336,-0.067 0.366,-0.076 0.39,-0.095C0.414,-0.114 0.431,-0.139 0.443,-0.17C0.454,-0.2 0.46,-0.234 0.46,-0.27C0.46,-0.306 0.454,-0.339 0.443,-0.37C0.431,-0.401 0.414,-0.427 0.39,-0.446C0.366,-0.465 0.336,-0.474 0.299,-0.474C0.263,-0.474 0.233,-0.465 0.209,-0.446C0.186,-0.427 0.169,-0.402 0.157,-0.371C0.146,-0.34 0.14,-0.306 0.14,-0.27C0.14,-0.234 0.146,-0.2 0.157,-0.17C0.169,-0.139 0.186,-0.114 0.209,-0.095C0.233,-0.076 0.263,-0.067 0.299,-0.067Z" style="fill-rule:nonzero;"/>
            </g>
            <g transform="matrix(6,0,0,6,9.28936,34)">
                <path d="M0.165,-0.327L0.165,-0L0.077,-0L0.077,-0.546L0.162,-0.546L0.162,-0.414L0.15,-0.414C0.167,-0.464 0.19,-0.5 0.221,-0.521C0.252,-0.542 0.288,-0.553 0.329,-0.553C0.366,-0.553 0.398,-0.545 0.426,-0.53C0.453,-0.515 0.475,-0.492 0.49,-0.462C0.506,-0.431 0.514,-0.393 0.514,-0.347L0.514,-0L0.426,-0L0.426,-0.339C0.426,-0.381 0.415,-0.414 0.393,-0.438C0.371,-0.462 0.341,-0.474 0.303,-0.474C0.277,-0.474 0.253,-0.468 0.232,-0.457C0.212,-0.445 0.195,-0.429 0.183,-0.407C0.171,-0.385 0.165,-0.358 0.165,-0.327Z" style="fill-rule:nonzero;"/>
            </g>
            <g transform="matrix(6,0,0,6,12.8343,34)">
                <path d="M0.263,0.012C0.225,0.012 0.192,0.006 0.163,-0.005C0.134,-0.016 0.11,-0.032 0.091,-0.053C0.072,-0.075 0.059,-0.101 0.053,-0.132L0.136,-0.152C0.144,-0.122 0.159,-0.1 0.18,-0.086C0.202,-0.072 0.229,-0.065 0.262,-0.065C0.3,-0.065 0.33,-0.074 0.353,-0.09C0.375,-0.106 0.387,-0.125 0.387,-0.148C0.387,-0.167 0.38,-0.183 0.367,-0.195C0.354,-0.208 0.334,-0.217 0.307,-0.223L0.216,-0.245C0.166,-0.256 0.13,-0.274 0.105,-0.299C0.081,-0.324 0.069,-0.355 0.069,-0.394C0.069,-0.425 0.078,-0.452 0.096,-0.476C0.113,-0.5 0.137,-0.519 0.168,-0.532C0.198,-0.546 0.233,-0.553 0.271,-0.553C0.309,-0.553 0.341,-0.547 0.367,-0.536C0.393,-0.525 0.414,-0.509 0.431,-0.49C0.447,-0.47 0.46,-0.447 0.468,-0.421L0.388,-0.401C0.381,-0.42 0.368,-0.438 0.351,-0.454C0.333,-0.47 0.307,-0.478 0.272,-0.478C0.239,-0.478 0.212,-0.471 0.191,-0.456C0.169,-0.441 0.158,-0.422 0.158,-0.399C0.158,-0.379 0.166,-0.363 0.18,-0.35C0.195,-0.338 0.218,-0.328 0.25,-0.321L0.333,-0.301C0.382,-0.29 0.419,-0.271 0.442,-0.247C0.466,-0.222 0.478,-0.191 0.478,-0.154C0.478,-0.122 0.469,-0.094 0.451,-0.069C0.433,-0.044 0.408,-0.024 0.375,-0.01C0.343,0.005 0.305,0.012 0.263,0.012Z" style="fill-rule:nonzero;"/>
            </g>
            <g transform="matrix(6,0,0,6,16.0013,34)">
                <path d="M0.262,0.007C0.225,0.007 0.193,-0.001 0.165,-0.016C0.137,-0.031 0.116,-0.054 0.1,-0.084C0.085,-0.115 0.077,-0.153 0.077,-0.199L0.077,-0.546L0.165,-0.546L0.165,-0.207C0.165,-0.165 0.176,-0.132 0.198,-0.108C0.22,-0.084 0.25,-0.072 0.289,-0.072C0.315,-0.072 0.338,-0.078 0.359,-0.089C0.379,-0.101 0.396,-0.117 0.408,-0.139C0.42,-0.161 0.426,-0.188 0.426,-0.219L0.426,-0.546L0.514,-0.546L0.514,-0L0.429,-0L0.429,-0.132L0.441,-0.132C0.424,-0.081 0.4,-0.045 0.369,-0.024C0.338,-0.004 0.302,0.007 0.262,0.007Z" style="fill-rule:nonzero;"/>
            </g>
            <g transform="matrix(6,0,0,6,19.5491,34)">
                <rect x="0.077" y="-0.728" width="0.088" height="0.728" style="fill-rule:nonzero;"/>
            </g>
            <g transform="matrix(6,0,0,6,21.0901,34)">
                <path d="M0.292,-0.546L0.292,-0.471L0.01,-0.471L0.01,-0.546L0.292,-0.546ZM0.092,-0.676L0.18,-0.676L0.18,-0.142C0.18,-0.117 0.185,-0.099 0.195,-0.088C0.205,-0.077 0.221,-0.071 0.244,-0.071C0.25,-0.071 0.257,-0.072 0.265,-0.073C0.274,-0.075 0.282,-0.076 0.289,-0.077L0.307,-0.003C0.298,0 0.288,0.003 0.276,0.004C0.265,0.006 0.253,0.007 0.242,0.007C0.194,0.007 0.158,-0.006 0.131,-0.031C0.105,-0.055 0.092,-0.09 0.092,-0.135L0.092,-0.676Z" style="fill-rule:nonzero;"/>
            </g>
            <g transform="matrix(6,0,0,6,23.0823,34)">
                <path d="M0.23,0.013C0.195,0.013 0.164,0.006 0.136,-0.007C0.108,-0.02 0.085,-0.039 0.069,-0.064C0.052,-0.089 0.044,-0.119 0.044,-0.155C0.044,-0.187 0.05,-0.212 0.063,-0.231C0.075,-0.251 0.091,-0.266 0.112,-0.278C0.133,-0.289 0.156,-0.297 0.181,-0.303C0.206,-0.308 0.231,-0.313 0.256,-0.316C0.289,-0.32 0.315,-0.323 0.336,-0.326C0.356,-0.328 0.372,-0.332 0.382,-0.337C0.392,-0.343 0.396,-0.352 0.396,-0.366L0.396,-0.369C0.396,-0.391 0.392,-0.411 0.384,-0.427C0.375,-0.442 0.363,-0.454 0.346,-0.463C0.329,-0.471 0.308,-0.476 0.282,-0.476C0.256,-0.476 0.234,-0.472 0.215,-0.463C0.197,-0.455 0.182,-0.445 0.17,-0.433C0.159,-0.421 0.15,-0.408 0.144,-0.396L0.06,-0.423C0.074,-0.457 0.092,-0.483 0.116,-0.501C0.14,-0.52 0.166,-0.533 0.195,-0.541C0.223,-0.549 0.252,-0.553 0.28,-0.553C0.298,-0.553 0.319,-0.551 0.342,-0.546C0.365,-0.542 0.388,-0.533 0.409,-0.52C0.431,-0.507 0.449,-0.488 0.463,-0.462C0.477,-0.437 0.484,-0.403 0.484,-0.36L0.484,-0L0.398,-0L0.398,-0.074L0.392,-0.074C0.386,-0.062 0.376,-0.048 0.362,-0.035C0.349,-0.021 0.331,-0.01 0.309,-0.001C0.287,0.008 0.261,0.013 0.23,0.013ZM0.245,-0.065C0.278,-0.065 0.305,-0.071 0.328,-0.084C0.35,-0.097 0.367,-0.113 0.379,-0.134C0.391,-0.154 0.396,-0.175 0.396,-0.197L0.396,-0.273C0.393,-0.269 0.385,-0.265 0.373,-0.261C0.361,-0.258 0.347,-0.255 0.332,-0.252C0.316,-0.25 0.301,-0.248 0.287,-0.246C0.272,-0.244 0.261,-0.243 0.252,-0.242C0.231,-0.239 0.212,-0.235 0.193,-0.228C0.175,-0.222 0.16,-0.213 0.149,-0.2C0.138,-0.188 0.132,-0.172 0.132,-0.151C0.132,-0.132 0.137,-0.116 0.147,-0.104C0.157,-0.091 0.17,-0.081 0.187,-0.075C0.204,-0.068 0.223,-0.065 0.245,-0.065Z" style="fill-rule:nonzero;"/>
            </g>
            <g transform="matrix(6,0,0,6,26.4515,34)">
                <path d="M0.292,-0.546L0.292,-0.471L0.01,-0.471L0.01,-0.546L0.292,-0.546ZM0.092,-0.676L0.18,-0.676L0.18,-0.142C0.18,-0.117 0.185,-0.099 0.195,-0.088C0.205,-0.077 0.221,-0.071 0.244,-0.071C0.25,-0.071 0.257,-0.072 0.265,-0.073C0.274,-0.075 0.282,-0.076 0.289,-0.077L0.307,-0.003C0.298,0 0.288,0.003 0.276,0.004C0.265,0.006 0.253,0.007 0.242,0.007C0.194,0.007 0.158,-0.006 0.131,-0.031C0.105,-0.055 0.092,-0.09 0.092,-0.135L0.092,-0.676Z" style="fill-rule:nonzero;"/>
            </g>
            <g transform="matrix(6,0,0,6,28.4144,34)">
                <path d="M0.077,-0L0.077,-0.546L0.165,-0.546L0.165,-0L0.077,-0ZM0.122,-0.635C0.105,-0.635 0.091,-0.641 0.079,-0.652C0.067,-0.664 0.061,-0.677 0.061,-0.693C0.061,-0.71 0.067,-0.723 0.079,-0.735C0.091,-0.746 0.105,-0.751 0.122,-0.751C0.139,-0.751 0.153,-0.746 0.165,-0.735C0.177,-0.723 0.183,-0.71 0.183,-0.693C0.183,-0.677 0.177,-0.664 0.165,-0.652C0.153,-0.641 0.139,-0.635 0.122,-0.635Z" style="fill-rule:nonzero;"/>
            </g>
            <g transform="matrix(6,0,0,6,29.8675,34)">
                <path d="M0.299,0.012C0.25,0.012 0.206,0 0.169,-0.023C0.132,-0.047 0.103,-0.08 0.082,-0.122C0.061,-0.164 0.051,-0.214 0.051,-0.27C0.051,-0.326 0.061,-0.376 0.082,-0.419C0.103,-0.461 0.132,-0.494 0.169,-0.518C0.206,-0.541 0.25,-0.553 0.299,-0.553C0.349,-0.553 0.393,-0.541 0.43,-0.518C0.468,-0.494 0.497,-0.461 0.518,-0.419C0.538,-0.376 0.549,-0.326 0.549,-0.27C0.549,-0.214 0.538,-0.164 0.518,-0.122C0.497,-0.08 0.468,-0.047 0.43,-0.023C0.393,0 0.349,0.012 0.299,0.012ZM0.299,-0.067C0.336,-0.067 0.366,-0.076 0.39,-0.095C0.414,-0.114 0.431,-0.139 0.443,-0.17C0.454,-0.2 0.46,-0.234 0.46,-0.27C0.46,-0.306 0.454,-0.339 0.443,-0.37C0.431,-0.401 0.414,-0.427 0.39,-0.446C0.366,-0.465 0.336,-0.474 0.299,-0.474C0.263,-0.474 0.233,-0.465 0.209,-0.446C0.186,-0.427 0.169,-0.402 0.157,-0.371C0.146,-0.34 0.14,-0.306 0.14,-0.27C0.14,-0.234 0.146,-0.2 0.157,-0.17C0.169,-0.139 0.186,-0.114 0.209,-0.095C0.233,-0.076 0.263,-0.067 0.299,-0.067Z" style="fill-rule:nonzero;"/>
            </g>
            <g transform="matrix(6,0,0,6,33.4651,34)">
                <path d="M0.165,-0.327L0.165,-0L0.077,-0L0.077,-0.546L0.162,-0.546L0.162,-0.414L0.15,-0.414C0.167,-0.464 0.19,-0.5 0.221,-0.521C0.252,-0.542 0.288,-0.553 0.329,-0.553C0.366,-0.553 0.398,-0.545 0.426,-0.53C0.453,-0.515 0.475,-0.492 0.49,-0.462C0.506,-0.431 0.514,-0.393 0.514,-0.347L0.514,-0L0.426,-0L0.426,-0.339C0.426,-0.381 0.415,-0.414 0.393,-0.438C0.371,-0.462 0.341,-0.474 0.303,-0.474C0.277,-0.474 0.253,-0.468 0.232,-0.457C0.212,-0.445 0.195,-0.429 0.183,-0.407C0.171,-0.385 0.165,-0.358 0.165,-0.327Z" style="fill-rule:nonzero;"/>
            </g>
        </g>
    </g>
</svg>
